<svg version="1.1" xmlns="http://www.w3.org/2000/svg" style="display: block;" viewBox="0 0 2048 2048" width="1024" height="1024" preserveAspectRatio="none" xmlns:c2pa="http://c2pa.org/manifest"><metadata><c2pa:manifest>AAAzs2p1bWIAAAAeanVtZGMycGEAEQAQgAAAqgA4m3EDYzJwYQAAADONanVtYgAAAEdqdW1kYzJtYQARABCAAACqADibcQN1cm46YzJwYTo4MDE2NWQzYi0yMjJhLTRlYWMtYTJmZi1lM2EwNTViZjRlY2UAAAAB4mp1bWIAAAApanVtZGMyYXMAEQAQgAAAqgA4m3EDYzJwYS5hc3NlcnRpb25zAAAAAO1qdW1iAAAAQWp1bWRjYm9yABEAEIAAAKoAOJtxE2MycGEuYWN0aW9ucy52MgAAAAAYYzJzaBE+EMqBoEqUGSNQJQC3kmQAAACkY2JvcqFnYWN0aW9uc4GjZmFjdGlvbmxjMnBhLmNyZWF0ZWRxZGlnaXRhbFNvdXJjZVR5cGV4Rmh0dHA6Ly9jdi5pcHRjLm9yZy9uZXdzY29kZXMvZGlnaXRhbHNvdXJjZXR5cGUvdHJhaW5lZEFsZ29yaXRobWljTWVkaWFrZGVzY3JpcHRpb252Q3JlYXRlZCBieSBSZWNyYWZ0IEFJLgAAAMRqdW1iAAAAQGp1bWRjYm9yABEAEIAAAKoAOJtxE2MycGEuaGFzaC5kYXRhAAAAABhjMnNoYeyNwCchp8B2s+wanSSuZAAAAHxjYm9ypWpleGNsdXNpb25zgaJlc3RhcnQY22ZsZW5ndGgZRPBkbmFtZW5qdW1iZiBtYW5pZmVzdGNhbGdmc2hhMjU2ZGhhc2hYIMtXz4elEKXlEe3/WWu01zlh8Gbq27Qz9HYuvK7nbq4wY3BhZEkAAAAAAAAAAAAAAAI0anVtYgAAACdqdW1kYzJjbAARABCAAACqADibcQNjMnBhLmNsYWltLnYyAAAAAgVjYm9ypmppbnN0YW5jZUlEeCx4bXA6aWlkOjNlNGE1ZGM0LTY1OGItNGE3Yy1iNDFiLWEwNmI4ZTdkZjE5OXRjbGFpbV9nZW5lcmF0b3JfaW5mb6NkbmFtZWpyZWNyYWZ0LmFpZ3ZlcnNpb254KDgxY2U4MmUyYzVjM2NiZmJlOGM2ZmJlMTc5ZDVmOGQ5MWM0MDljZTF3b3JnLmNvbnRlbnRhdXRoLmMycGFfcnNmMC45MC43aXNpZ25hdHVyZXhNc2VsZiNqdW1iZj0vYzJwYS91cm46YzJwYTo4MDE2NWQzYi0yMjJhLTRlYWMtYTJmZi1lM2EwNTViZjRlY2UvYzJwYS5zaWduYXR1cmVyY3JlYXRlZF9hc3NlcnRpb25zgqJjdXJseCpzZWxmI2p1bWJmPWMycGEuYXNzZXJ0aW9ucy9jMnBhLmFjdGlvbnMudjJkaGFzaFggVubPmOsJVSn2SweDI2owAq6/8R2K9UFIwPwOIC+zSBqiY3VybHgpc2VsZiNqdW1iZj1jMnBhLmFzc2VydGlvbnMvYzJwYS5oYXNoLmRhdGFkaGFzaFggIifCGP24lOu0v5kqMwmjq7vz99VSszJno6G6MwiNjuJoZGM6dGl0bGV4GlJlY3JhZnQgQUkgR2VuZXJhdGVkIEltYWdlY2FsZ2ZzaGEyNTYAAC8oanVtYgAAAChqdW1kYzJjcwARABCAAACqADibcQNjMnBhLnNpZ25hdHVyZQAAAC74Y2JvctKEWQPsogEmGCGCWQH0MIIB8DCCAZWgAwIBAgIUJcFH1Va4pZJDhzepwEtzPPNj2YMwCgYIKoZIzj0EAwIwQTELMAkGA1UEBhMCVVMxEzARBgNVBAoMClJlY3JhZnQgQUkxHTAbBgNVBAMMFFJlY3JhZnQgQzJQQSBSb290IENBMB4XDTI2MDkxMDE2NTIzNFoXDTI3MDkxMDE2NTIzNFowNzELMAkGA1UEBhMCVVMxEzARBgNVBAoMClJlY3JhZnQgQUkxEzARBgNVBAMMCnJlY3JhZnQuYWkwWTATBgcqhkjOPQIBBggqhkjOPQMBBwNCAASoOPdqG3YmNRdGd+dltfh1ikcE/nkLm8YK10H29taFa8iegusHYB1678yl5Bs18hLaV/Fhd+Ni32xAlnHdbimFo3UwczAMBgNVHRMBAf8EAjAAMA4GA1UdDwEB/wQEAwIGwDATBgNVHSUEDDAKBggrBgEFBQcDBDAdBgNVHQ4EFgQUgVwhvbEXPSSgCubOfUHxCtuoVAQwHwYDVR0jBBgwFoAUc9yF+sfWlRHeWv2Iucaec5jwdAgwCgYIKoZIzj0EAwIDSQAwRgIhAJltDpQN+vbXITLxb+8BNwSL6/5WktO4Sevkb0VXjtfWAiEAqhoz7z/sN32NxdnnZsQVTeu3P7CgGtJdXFx283fp08RZAewwggHoMIIBjaADAgECAhQAydo/NKOQWWu/4V5FktVQHX7jTDAKBggqhkjOPQQDAjBBMQswCQYDVQQGEwJVUzETMBEGA1UECgwKUmVjcmFmdCBBSTEdMBsGA1UEAwwUUmVjcmFmdCBDMlBBIFJvb3QgQ0EwHhcNMjYwOTEwMTY1MjM0WhcNMzYwOTA3MTY1MjM0WjBBMQswCQYDVQQGEwJVUzETMBEGA1UECgwKUmVjcmFmdCBBSTEdMBsGA1UEAwwUUmVjcmFmdCBDMlBBIFJvb3QgQ0EwWTATBgcqhkjOPQIBBggqhkjOPQMBBwNCAAQbQ+eF6fkpnHhTwrMxSBLh/JhROWkzsC8L8jN1r1Rlf8oECvzEFk3WujloPtNs3PLADriqR5rGtd+8giFuiTLno2MwYTAfBgNVHSMEGDAWgBRz3IX6x9aVEd5a/Yi5xp5zmPB0CDAPBgNVHRMBAf8EBTADAQH/MA4GA1UdDwEB/wQEAwIBhjAdBgNVHQ4EFgQUc9yF+sfWlRHeWv2Iucaec5jwdAgwCgYIKoZIzj0EAwIDSQAwRgIhAND2Z+xryBRnMbxk8eAzMcAq8bzl0rfA9Y2z7q5QoEUeAiEA6ZbI3e47h5clRZaARSOOotKXsK/YQMWC3vj91d3bmlOhY3BhZFkqtAAAAAAAAAAAAAAAAAAAAAAAAAAAAAAAAAAAAAAAAAAAAAAAAAAAAAAAAAAAAAAAAAAAAAAAAAAAAAAAAAAAAAAAAAAAAAAAAAAAAAAAAAAAAAAAAAAAAAAAAAAAAAAAAAAAAAAAAAAAAAAAAAAAAAAAAAAAAAAAAAAAAAAAAAAAAAAAAAAAAAAAAAAAAAAAAAAAAAAAAAAAAAAAAAAAAAAAAAAAAAAAAAAAAAAAAAAAAAAAAAAAAAAAAAAAAAAAAAAAAAAAAAAAAAAAAAAAAAAAAAAAAAAAAAAAAAAAAAAAAAAAAAAAAAAAAAAAAAAAAAAAAAAAAAAAAAAAAAAAAAAAAAAAAAAAAAAAAAAAAAAAAAAAAAAAAAAAAAAAAAAAAAAAAAAAAAAAAAAAAAAAAAAAAAAAAAAAAAAAAAAAAAAAAAAAAAAAAAAAAAAAAAAAAAAAAAAAAAAAAAAAAAAAAAAAAAAAAAAAAAAAAAAAAAAAAAAAAAAAAAAAAAAAAAAAAAAAAAAAAAAAAAAAAAAAAAAAAAAAAAAAAAAAAAAAAAAAAAAAAAAAAAAAAAAAAAAAAAAAAAAAAAAAAAAAAAAAAAAAAAAAAAAAAAAAAAAAAAAAAAAAAAAAAAAAAAAAAAAAAAAAAAAAAAAAAAAAAAAAAAAAAAAAAAAAAAAAAAAAAAAAAAAAAAAAAAAAAAAAAAAAAAAAAAAAAAAAAAAAAAAAAAAAAAAAAAAAAAAAAAAAAAAAAAAAAAAAAAAAAAAAAAAAAAAAAAAAAAAAAAAAAAAAAAAAAAAAAAAAAAAAAAAAAAAAAAAAAAAAAAAAAAAAAAAAAAAAAAAAAAAAAAAAAAAAAAAAAAAAAAAAAAAAAAAAAAAAAAAAAAAAAAAAAAAAAAAAAAAAAAAAAAAAAAAAAAAAAAAAAAAAAAAAAAAAAAAAAAAAAAAAAAAAAAAAAAAAAAAAAAAAAAAAAAAAAAAAAAAAAAAAAAAAAAAAAAAAAAAAAAAAAAAAAAAAAAAAAAAAAAAAAAAAAAAAAAAAAAAAAAAAAAAAAAAAAAAAAAAAAAAAAAAAAAAAAAAAAAAAAAAAAAAAAAAAAAAAAAAAAAAAAAAAAAAAAAAAAAAAAAAAAAAAAAAAAAAAAAAAAAAAAAAAAAAAAAAAAAAAAAAAAAAAAAAAAAAAAAAAAAAAAAAAAAAAAAAAAAAAAAAAAAAAAAAAAAAAAAAAAAAAAAAAAAAAAAAAAAAAAAAAAAAAAAAAAAAAAAAAAAAAAAAAAAAAAAAAAAAAAAAAAAAAAAAAAAAAAAAAAAAAAAAAAAAAAAAAAAAAAAAAAAAAAAAAAAAAAAAAAAAAAAAAAAAAAAAAAAAAAAAAAAAAAAAAAAAAAAAAAAAAAAAAAAAAAAAAAAAAAAAAAAAAAAAAAAAAAAAAAAAAAAAAAAAAAAAAAAAAAAAAAAAAAAAAAAAAAAAAAAAAAAAAAAAAAAAAAAAAAAAAAAAAAAAAAAAAAAAAAAAAAAAAAAAAAAAAAAAAAAAAAAAAAAAAAAAAAAAAAAAAAAAAAAAAAAAAAAAAAAAAAAAAAAAAAAAAAAAAAAAAAAAAAAAAAAAAAAAAAAAAAAAAAAAAAAAAAAAAAAAAAAAAAAAAAAAAAAAAAAAAAAAAAAAAAAAAAAAAAAAAAAAAAAAAAAAAAAAAAAAAAAAAAAAAAAAAAAAAAAAAAAAAAAAAAAAAAAAAAAAAAAAAAAAAAAAAAAAAAAAAAAAAAAAAAAAAAAAAAAAAAAAAAAAAAAAAAAAAAAAAAAAAAAAAAAAAAAAAAAAAAAAAAAAAAAAAAAAAAAAAAAAAAAAAAAAAAAAAAAAAAAAAAAAAAAAAAAAAAAAAAAAAAAAAAAAAAAAAAAAAAAAAAAAAAAAAAAAAAAAAAAAAAAAAAAAAAAAAAAAAAAAAAAAAAAAAAAAAAAAAAAAAAAAAAAAAAAAAAAAAAAAAAAAAAAAAAAAAAAAAAAAAAAAAAAAAAAAAAAAAAAAAAAAAAAAAAAAAAAAAAAAAAAAAAAAAAAAAAAAAAAAAAAAAAAAAAAAAAAAAAAAAAAAAAAAAAAAAAAAAAAAAAAAAAAAAAAAAAAAAAAAAAAAAAAAAAAAAAAAAAAAAAAAAAAAAAAAAAAAAAAAAAAAAAAAAAAAAAAAAAAAAAAAAAAAAAAAAAAAAAAAAAAAAAAAAAAAAAAAAAAAAAAAAAAAAAAAAAAAAAAAAAAAAAAAAAAAAAAAAAAAAAAAAAAAAAAAAAAAAAAAAAAAAAAAAAAAAAAAAAAAAAAAAAAAAAAAAAAAAAAAAAAAAAAAAAAAAAAAAAAAAAAAAAAAAAAAAAAAAAAAAAAAAAAAAAAAAAAAAAAAAAAAAAAAAAAAAAAAAAAAAAAAAAAAAAAAAAAAAAAAAAAAAAAAAAAAAAAAAAAAAAAAAAAAAAAAAAAAAAAAAAAAAAAAAAAAAAAAAAAAAAAAAAAAAAAAAAAAAAAAAAAAAAAAAAAAAAAAAAAAAAAAAAAAAAAAAAAAAAAAAAAAAAAAAAAAAAAAAAAAAAAAAAAAAAAAAAAAAAAAAAAAAAAAAAAAAAAAAAAAAAAAAAAAAAAAAAAAAAAAAAAAAAAAAAAAAAAAAAAAAAAAAAAAAAAAAAAAAAAAAAAAAAAAAAAAAAAAAAAAAAAAAAAAAAAAAAAAAAAAAAAAAAAAAAAAAAAAAAAAAAAAAAAAAAAAAAAAAAAAAAAAAAAAAAAAAAAAAAAAAAAAAAAAAAAAAAAAAAAAAAAAAAAAAAAAAAAAAAAAAAAAAAAAAAAAAAAAAAAAAAAAAAAAAAAAAAAAAAAAAAAAAAAAAAAAAAAAAAAAAAAAAAAAAAAAAAAAAAAAAAAAAAAAAAAAAAAAAAAAAAAAAAAAAAAAAAAAAAAAAAAAAAAAAAAAAAAAAAAAAAAAAAAAAAAAAAAAAAAAAAAAAAAAAAAAAAAAAAAAAAAAAAAAAAAAAAAAAAAAAAAAAAAAAAAAAAAAAAAAAAAAAAAAAAAAAAAAAAAAAAAAAAAAAAAAAAAAAAAAAAAAAAAAAAAAAAAAAAAAAAAAAAAAAAAAAAAAAAAAAAAAAAAAAAAAAAAAAAAAAAAAAAAAAAAAAAAAAAAAAAAAAAAAAAAAAAAAAAAAAAAAAAAAAAAAAAAAAAAAAAAAAAAAAAAAAAAAAAAAAAAAAAAAAAAAAAAAAAAAAAAAAAAAAAAAAAAAAAAAAAAAAAAAAAAAAAAAAAAAAAAAAAAAAAAAAAAAAAAAAAAAAAAAAAAAAAAAAAAAAAAAAAAAAAAAAAAAAAAAAAAAAAAAAAAAAAAAAAAAAAAAAAAAAAAAAAAAAAAAAAAAAAAAAAAAAAAAAAAAAAAAAAAAAAAAAAAAAAAAAAAAAAAAAAAAAAAAAAAAAAAAAAAAAAAAAAAAAAAAAAAAAAAAAAAAAAAAAAAAAAAAAAAAAAAAAAAAAAAAAAAAAAAAAAAAAAAAAAAAAAAAAAAAAAAAAAAAAAAAAAAAAAAAAAAAAAAAAAAAAAAAAAAAAAAAAAAAAAAAAAAAAAAAAAAAAAAAAAAAAAAAAAAAAAAAAAAAAAAAAAAAAAAAAAAAAAAAAAAAAAAAAAAAAAAAAAAAAAAAAAAAAAAAAAAAAAAAAAAAAAAAAAAAAAAAAAAAAAAAAAAAAAAAAAAAAAAAAAAAAAAAAAAAAAAAAAAAAAAAAAAAAAAAAAAAAAAAAAAAAAAAAAAAAAAAAAAAAAAAAAAAAAAAAAAAAAAAAAAAAAAAAAAAAAAAAAAAAAAAAAAAAAAAAAAAAAAAAAAAAAAAAAAAAAAAAAAAAAAAAAAAAAAAAAAAAAAAAAAAAAAAAAAAAAAAAAAAAAAAAAAAAAAAAAAAAAAAAAAAAAAAAAAAAAAAAAAAAAAAAAAAAAAAAAAAAAAAAAAAAAAAAAAAAAAAAAAAAAAAAAAAAAAAAAAAAAAAAAAAAAAAAAAAAAAAAAAAAAAAAAAAAAAAAAAAAAAAAAAAAAAAAAAAAAAAAAAAAAAAAAAAAAAAAAAAAAAAAAAAAAAAAAAAAAAAAAAAAAAAAAAAAAAAAAAAAAAAAAAAAAAAAAAAAAAAAAAAAAAAAAAAAAAAAAAAAAAAAAAAAAAAAAAAAAAAAAAAAAAAAAAAAAAAAAAAAAAAAAAAAAAAAAAAAAAAAAAAAAAAAAAAAAAAAAAAAAAAAAAAAAAAAAAAAAAAAAAAAAAAAAAAAAAAAAAAAAAAAAAAAAAAAAAAAAAAAAAAAAAAAAAAAAAAAAAAAAAAAAAAAAAAAAAAAAAAAAAAAAAAAAAAAAAAAAAAAAAAAAAAAAAAAAAAAAAAAAAAAAAAAAAAAAAAAAAAAAAAAAAAAAAAAAAAAAAAAAAAAAAAAAAAAAAAAAAAAAAAAAAAAAAAAAAAAAAAAAAAAAAAAAAAAAAAAAAAAAAAAAAAAAAAAAAAAAAAAAAAAAAAAAAAAAAAAAAAAAAAAAAAAAAAAAAAAAAAAAAAAAAAAAAAAAAAAAAAAAAAAAAAAAAAAAAAAAAAAAAAAAAAAAAAAAAAAAAAAAAAAAAAAAAAAAAAAAAAAAAAAAAAAAAAAAAAAAAAAAAAAAAAAAAAAAAAAAAAAAAAAAAAAAAAAAAAAAAAAAAAAAAAAAAAAAAAAAAAAAAAAAAAAAAAAAAAAAAAAAAAAAAAAAAAAAAAAAAAAAAAAAAAAAAAAAAAAAAAAAAAAAAAAAAAAAAAAAAAAAAAAAAAAAAAAAAAAAAAAAAAAAAAAAAAAAAAAAAAAAAAAAAAAAAAAAAAAAAAAAAAAAAAAAAAAAAAAAAAAAAAAAAAAAAAAAAAAAAAAAAAAAAAAAAAAAAAAAAAAAAAAAAAAAAAAAAAAAAAAAAAAAAAAAAAAAAAAAAAAAAAAAAAAAAAAAAAAAAAAAAAAAAAAAAAAAAAAAAAAAAAAAAAAAAAAAAAAAAAAAAAAAAAAAAAAAAAAAAAAAAAAAAAAAAAAAAAAAAAAAAAAAAAAAAAAAAAAAAAAAAAAAAAAAAAAAAAAAAAAAAAAAAAAAAAAAAAAAAAAAAAAAAAAAAAAAAAAAAAAAAAAAAAAAAAAAAAAAAAAAAAAAAAAAAAAAAAAAAAAAAAAAAAAAAAAAAAAAAAAAAAAAAAAAAAAAAAAAAAAAAAAAAAAAAAAAAAAAAAAAAAAAAAAAAAAAAAAAAAAAAAAAAAAAAAAAAAAAAAAAAAAAAAAAAAAAAAAAAAAAAAAAAAAAAAAAAAAAAAAAAAAAAAAAAAAAAAAAAAAAAAAAAAAAAAAAAAAAAAAAAAAAAAAAAAAAAAAAAAAAAAAAAAAAAAAAAAAAAAAAAAAAAAAAAAAAAAAAAAAAAAAAAAAAAAAAAAAAAAAAAAAAAAAAAAAAAAAAAAAAAAAAAAAAAAAAAAAAAAAAAAAAAAAAAAAAAAAAAAAAAAAAAAAAAAAAAAAAAAAAAAAAAAAAAAAAAAAAAAAAAAAAAAAAAAAAAAAAAAAAAAAAAAAAAAAAAAAAAAAAAAAAAAAAAAAAAAAAAAAAAAAAAAAAAAAAAAAAAAAAAAAAAAAAAAAAAAAAAAAAAAAAAAAAAAAAAAAAAAAAAAAAAAAAAAAAAAAAAAAAAAAAAAAAAAAAAAAAAAAAAAAAAAAAAAAAAAAAAAAAAAAAAAAAAAAAAAAAAAAAAAAAAAAAAAAAAAAAAAAAAAAAAAAAAAAAAAAAAAAAAAAAAAAAAAAAAAAAAAAAAAAAAAAAAAAAAAAAAAAAAAAAAAAAAAAAAAAAAAAAAAAAAAAAAAAAAAAAAAAAAAAAAAAAAAAAAAAAAAAAAAAAAAAAAAAAAAAAAAAAAAAAAAAAAAAAAAAAAAAAAAAAAAAAAAAAAAAAAAAAAAAAAAAAAAAAAAAAAAAAAAAAAAAAAAAAAAAAAAAAAAAAAAAAAAAAAAAAAAAAAAAAAAAAAAAAAAAAAAAAAAAAAAAAAAAAAAAAAAAAAAAAAAAAAAAAAAAAAAAAAAAAAAAAAAAAAAAAAAAAAAAAAAAAAAAAAAAAAAAAAAAAAAAAAAAAAAAAAAAAAAAAAAAAAAAAAAAAAAAAAAAAAAAAAAAAAAAAAAAAAAAAAAAAAAAAAAAAAAAAAAAAAAAAAAAAAAAAAAAAAAAAAAAAAAAAAAAAAAAAAAAAAAAAAAAAAAAAAAAAAAAAAAAAAAAAAAAAAAAAAAAAAAAAAAAAAAAAAAAAAAAAAAAAAAAAAAAAAAAAAAAAAAAAAAAAAAAAAAAAAAAAAAAAAAAAAAAAAAAAAAAAAAAAAAAAAAAAAAAAAAAAAAAAAAAAAAAAAAAAAAAAAAAAAAAAAAAAAAAAAAAAAAAAAAAAAAAAAAAAAAAAAAAAAAAAAAAAAAAAAAAAAAAAAAAAAAAAAAAAAAAAAAAAAAAAAAAAAAAAAAAAAAAAAAAAAAAAAAAAAAAAAAAAAAAAAAAAAAAAAAAAAAAAAAAAAAAAAAAAAAAAAAAAAAAAAAAAAAAAAAAAAAAAAAAAAAAAAAAAAAAAAAAAAAAAAAAAAAAAAAAAAAAAAAAAAAAAAAAAAAAAAAAAAAAAAAAAAAAAAAAAAAAAAAAAAAAAAAAAAAAAAAAAAAAAAAAAAAAAAAAAAAAAAAAAAAAAAAAAAAAAAAAAAAAAAAAAAAAAAAAAAAAAAAAAAAAAAAAAAAAAAAAAAAAAAAAAAAAAAAAAAAAAAAAAAAAAAAAAAAAAAAAAAAAAAAAAAAAAAAAAAAAAAAAAAAAAAAAAAAAAAAAAAAAAAAAAAAAAAAAAAAAAAAAAAAAAAAAAAAAAAAAAAAAAAAAAAAAAAAAAAAAAAAAAAAAAAAAAAAAAAAAAAAAAAAAAAAAAAAAAAAAAAAAAAAAAAAAAAAAAAAAAAAAAAAAAAAAAAAAAAAAAAAAAAAAAAAAAAAAAAAAAAAAAAAAAAAAAAAAAAAAAAAAAAAAAAAAAAAAAAAAAAAAAAAAAAAAAAAAAAAAAAAAAAAAAAAAAAAAAAAAAAAAAAAAAAAAAAAAAAAAAAAAAAAAAAAAAAAAAAAAAAAAAAAAAAAAAAAAAAAAAAAAAAAAAAAAAAAAAAAAAAAAAAAAAAAAAAAAAAAAAAAAAAAAAAAAAAAAAAAAAAAAAAAAAAAAAAAAAAAAAAAAAAAAAAAAAAAAAAAAAAAAAAAAAAAAAAAAAAAAAAAAAAAAAAAAAAAAAAAAAAAAAAAAAAAAAAAAAAAAAAAAAAAAAAAAAAAAAAAAAAAAAAAAAAAAAAAAAAAAAAAAAAAAAAAAAAAAAAAAAAAAAAAAAAAAAAAAAAAAAAAAAAAAAAAAAAAAAAAAAAAAAAAAAAAAAAAAAAAAAAAAAAAAAAAAAAAAAAAAAAAAAAAAAAAAAAAAAAAAAAAAAAAAAAAAAAAAAAAAAAAAAAAAAAAAAAAAAAAAAAAAAAAAAAAAAAAAAAAAAAAAAAAAAAAAAAAAAAAAAAAAAAAAAAAAAAAAAAAAAAAAAAAAAAAAAAAAAAAAAAAAAAAAAAAAAAAAAAAAAAAAAAAAAAAAAAAAAAAAAAAAAAAAAAAAAAAAAAAAAAAAAAAAAAAAAAAAAAAAAAAAAAAAAAAAAAAAAAAAAAAAAAAAAAAAAAAAAAAAAAAAAAAAAAAAAAAAAAAAAAAAAAAAAAAAAAAAAAAAAAAAAAAAAAAAAAAAAAAAAAAAAAAAAAAAAAAAAAAAAAAAAAAAAAAAAAAAAAAAAAAAAAAAAAAAAAAAAAAAAAAAAAAAAAAAAAAAAAAAAAAAAAAAAAAAAAAAAAAAAAAAAAAAAAAAAAAAAAAAAAAAAAAAAAAAAAAAAAAAAAAAAAAAAAAAAAAAAAAAAAAAAAAAAAAAAAAAAAAAAAAAAAAAAAAAAAAAAAAAAAAAAAAAAAAAAAAAAAAAAAAAAAAAAAAAAAAAAAAAAAAAAAAAAAAAAAAAAAAAAAAAAAAAAAAAAAAAAAAAAAAAAAAAAAAAAAAAAAAAAAAAAAAAAAAAAAAAAAAAAAAAAAAAAAAAAAAAAAAAAAAAAAAAAAAAAAAAAAAAAAAAAAAAAAAAAAAAAAAAAAAAAAAAAAAAAAAAAAAAAAAAAAAAAAAAAAAAAAAAAAAAAAAAAAAAAAAAAAAAAAAAAAAAAAAAAAAAAAAAAAAAAAAAAAAAAAAAAAAAAAAAAAAAAAAAAAAAAAAAAAAAAAAAAAAAAAAAAAAAAAAAAAAAAAAAAAAAAAAAAAAAAAAAAAAAAAAAAAAAAAAAAAAAAAAAAAAAAAAAAAAAAAAAAAAAAAAAAAAAAAAAAAAAAAAAAAAAAAAAAAAAAAAAAAAAAAAAAAAAAAAAAAAAAAAAAAAAAAAAAAAAAAAAAAAAAAAAAAAAAAAAAAAAAAAAAAAAAAAAAAAAAAAAAAAAAAAAAAAAAAAAAAAAAAAAAAAAAAAAAAAAAAAAAAAAAAAAAAAAAAAAAAAAAAAAAAAAAAAAAAAAAAAAAAAAAAAAAAAAAAAAAAAAAAAAAAAAAAAAAAAAAAAAAAAAAAAAAAAAAAAAAAAAAAAAAAAAAAAAAAAAAAAAAAAAAAAAAAAAAAAAAAAAAAAAAAAAAAAAAAAAAAAAAAAAAAAAAAAAAAAAAAAAAAAAAAAAAAAAAAAAAAAAAAAAAAAAAAAAAAAAAAAAAAAAAAAAAAAAAAAAAAAAAAAAAAAAAAAAAAAAAAAAAAAAAAAAAAAAAAAAAAAAAAAAAAAAAAAAAAAAAAAAAAAAAAAAAAAAAAAAAAAAAAAAAAAAAAAAAAAAAAAAAAAAAAAAAAAAAAAAAAAAAAAAAAAAAAAAAAAAAAAAAAAAAAAAAAAAAAAAAAAAAAAAAAAAAAAAAAAAAAAAAAAAAAAAAAAAAAAAAAAAAAAAAAAAAAAAAAAAAAAAAAAAAAAAAAAAAAAAAAAAAAAAAAAAAAAAAAAAAAAAAAAAAAAAAAAAAAAAAAAAAAAAAAAAAAAAAAAAAAAAAAAAAAAAAAAAAAAAAAAAAAAAAAAAAAAAAAAAAAAAAAAAAAAAAAAAAAAAAAAAAAAAAAAAAAAAAAAAAAAAAAAAAAAAAAAAAAAAAAAAAAAAAAAAAAAAAAAAAAAAAAAAAAAAAAAAAAAAAAAAAAAAAAAAAAAAAAAAAAAAAAAAAAAAAAAAAAAAAAAAAAAAAAAAAAAAAAAAAAAAAAAAAAAAAAAAAAAAAAAAAAAAAAAAAAAAAAAAAAAAAAAAAAAAAAAAAAAAAAAAAAAAAAAAAAAAAAAAAAAAAAAAAAAAAAAAAAAAAAAAAAAAAAAAAAAAAAAAAAAAAAAAAAAAAAAAAAAAAAAAAAAAAAAAAAAAAAAAAAAAAAAAAAAAAAAAAAAAAAAAAAAAAAAAAAAAAAAAAAAAAAAAAAAAAAAAAAAAAAAAAAAAAAAAAAAAAAAAAAAAAAAAAAAAAAAAAAAAAAAAAAAAAAAAAAAAAAAAAAAAAAAAAAAAAAAAAAAAAAAAAAAAAAAAAAAAAAAAAAAAAAAAAAAAAAAAAAAAAAAAAAAAAAAAAAAAAAAAAAAAAAAAAAAAAAAAAAAAAAAAAAAAAAAAAAAAAAAAAAAAAAAAAAAAAAAAAAAAAAAAAAAAAAAAAAAAAAAAAAAAAAAAAAAAAAAAAAAAAAAAAAAAAAAAAAAAAAAAAAAAAAAAAAAAAAAAAAAAAAAAAAAAAAAAAAAAAAAAAAAAAAAAAAAAAAAAAAAAAAAAAAAAAAAAAAAAAAAAAAAAAAAAAAAAAAAAAAAAAAAAAAAAAAAAAAAAAAAAAAAAAAAAAAAAAAAAAAAAAAAAAAAAAAAAAAAAAAAAAAAAAAAAAAAAAAAAAAAAAAAAAAAAAAAAAAAAAAAAAAAAAAAAAAAAAAAAAAAAAAAAAAAAAAAAAAAAAAAAAAAAAAAAAAAAAAAAAAAAAAAAAAAAAAAAAAAAAAAAAAAAAAAAAAAAAAAAAAAAAAAAAAAAAAAAAAAAAAAAAAAAAAAAAAAAAAAAAAAAAAAAAAAAAAAAAAAAAAAAAAAAAAAAAAAAAAAAAAAAAAAAAAAAAAAAAAAAAAAAAAAAAAAAAAAAAAAAAAAAAAAAAAAAAAAAAAAAAAAAAAAAAAAAAAAAAAAAAAAAAAAAAAAAAAAAAAAAAAAAAAAAAAAAAAAAAAAAAAAAAAAAAAAAAAAAAAAAAAAAAAAAAAAAAAAAAAAAAAAAAAAAAAAAAAAAAAAAAAAAAAAAAAAAAAAAAAAAAAAAAAAAAAAAAAAAAAAAAAAAAAAAAAAAAAAAAAAAAAAAAAAAAAAAAAAAAAAAAAAAAAAAAAAAAAAAAAAAAAAAAAAAAAAAAAAAAAAAAAAAAAAAAAAAAAAAAAAAAAAAAAAAAAAAAAAAAAAAAAAAAAAAAAAAAAAAAAAAAAAAAAAAAAAAAAAAAAAAAAAAAAAAAAAAAAAAAAAAAAAAAAAAAAAAAAAAAAAAAAAAAAAAAAAAAAAAAAAAAAAAAAAAAAAAAAAAAAAAAAAAAAAAAAAAAAAAAAAAAAAAAAAAAAAAAAAAAAAAAAAAAAAAAAAAAAAAAAAAAAAAAAAAAAAAAAAAAAAAAAAAAAAAAAAAAAAAAAAAAAAAAAAAAAAAAAAAAAAAAAAAAAAAAAAAAAAAAAAAAAAAAAAAAAAAAAAAAAAAAAAAAAAAAAAAAAAAAAAAAAAAAAAAAAAAAAAAAAAAAAAAAAAAAAAAAAAAAAAAAAAAAAAAAAAAAAAAAAAAAAAAAAAAAAAAAAAAAAAAAAAAAAAAAAAAAAAAAAAAAAAAAAAAAAAAAAAAAAAAAAAAAAAAAAAAAAAAAAAAAAAAAAAAAAAAAAAAAAAAAAAAAAAAAAAAAAAAAAAAAAAAAAAAAAAAAAAAAAAAAAAAAAAAAAAAAAAAAAAAAAAAAAAAAAAAAAAAAAAAAAAAAAAAAAAAAAAAAAAAAAAAAAAAAAAAAAAAAAAAAAAAAAAAAAAAAAAAAAAAAAAAAAAAAAAAAAAAAAAAAAAAAAAAAAAAAAAAAAAAAAAAAAAAAAAAAAAAAAAAAAAAAAAAAAAAAAAAAAAAAAAAAAAAAAAAAAAAAAAAAAAAAAAAAAAAAAAAAAAAAAAAAAAAAAAAAAAAAAAAAAAAAAAAAAAAAAAAAAAAAAAAAAAAAAAAAAAAAAAAAAAAAAAAAAAAAAAAAAAAAAAAAAAAAAAAAAAAAAAAAAAAAAAAAAAAAAAAAAAAAAAAAAAAAAAAAAAAAAAAAAAAAAAAAAAAAAAAAAAAAAAAAAAAAAAAAAAAAAAAAAAAAAAAAAAAAAAAAAAAAAAAAAAAAAAAAAAAAAAAAAAAAAAAAAAAAAAAAAAAAAAAAAAAAAAAAAAAAAAAAAAAAAAAAAAAAAAAAAAAAAAAAAAAAAAAAAAAAAAAAAAAAAAAAAAAAAAAAAAAAAAAAAAAAAAAAAAAAAAAAAAAAAAAAAAAAAAAAAAAAAAAAAAAAAAAAAAAAAAAAAAAAAAAAAAAAAAAAAAAAAAAAAAAAAAAAAAAAAAAAAAAAAAAAAAAAAAAAAAAAAAAAAAAAAAAAAAAAAAAAAAAAAAAAAAAAAAAAAAAAAAAAAAAAAAAAAAAAAAAAAAAAAAAAAAAAAAAAAAAAAAAAAAAAAAAAAAAAAAAAAAAAAAAAAAAAAAAAAAAAAAAAAAAAAAAAAAAAAAAAAAAAAAAAAAAAAAAAAAAAAAAAAAAAAAAAAAAAAAAAAAAAAAAAAAAAAAAAAAAAAAAAAAAAAAAAAAAAAAAAAAAAAAAAAAAAAAAAAAAAAAAAAAAAAAAAAAAAAAAAAAAAAAAAAAAAAAAAAAAAAAAAAAAAAAAAAAAAAAAAAAAAAAAAAAAAAAAAAAAAAAAAAAAAAAAAAAAAAAAAAAAAAAAAAAAAAAAAAAAAAAAAAAAAAAAAAAAAAAAAAAAAAAAAAAAAAAAAAAAAAAAAAAAAAAAAAAAAAAAAAAAAAAAAAAAAAAAAAAAAAAAAAAAAAAAAAAAAAAAAAAAAAAAAAAAAAAAAAAAAAAAAAAAAAAAAAAAAAAAAAAAAAAAAAAAAAAAAAAAAAAAAAAAAAAAAAAAAAAAAAAAAAAAAAAAAAAAAAAAAAAAAAAAAAAAAAAAAAAAAAAAAAAAAAAAAAAAAAAAAAAAAAAAAAAAAAAAAAAAAAAAAAAAAAAAAAAAAAAAAAAAAAAAAAAAAAAAAAAAAAAAAAAAAAAAAAAAAAAAAAAAAAAAAAAAAAAAAAAAAAAAAAAAAAAAAAAAAAAAAAAAAAAAAAAAAAAAAAAAAAAAAAAAAAAAAAAAAAAAAAAAAAAAAAAAAAAAAAAAAAAAAAAAAAAAAAAAAAAAAAAAAAAAAAAAAAAAAAAAAAAAAAAAAAAAAAAAAAAAAAAAAAAAAAAAAAAAAAAAAAAAAAAAAAAAAAAAAAAAAAAAAAAAAAAAAAAAAAAAAAAAAAAAAAAAAAAAAAAAAAAAAAAAAAAAAAAAAAAAAAAAAAAAAAAAAAAAAAAAAAAAAAAAAAAAAAAAAAAAAAAAAAAAAAAAAAAAAAAAAAAAAAAAAAAAAAAAAAAAAAAAAAAAAAAAAAAAAAAAAAAAAAAAAAAAAAAAAAAAAAAAAAAAAAAAAAAAAAAAAAAAAAAAAAAAAAAAAAAAAAAAAAAAAAAAAAAAAAAAAAAAAAAAAAAAAAAAAAAAAAAAAAAAAAAAAAAAAAAAAAAAAAAAAAAAAAAAAAAAAAAAAAAAAAAAAAAAAAAAAAAAAAAAAAAAAAAAAAAAAAAAAAAAAAAAAAAAAAAAAAAAAAAAAAAAAAAAAAAAAAAAAAAAAAAAAAAAAAAAAAAAAAAAAAAAAAAAAAAAAAAAAAAAAAAAAAAAAAAAAAAAAAAAAAAAAAAAAAAAAAAAAAAAAAAAAAAAAAAAAAAAAAAAAAAAAAAAAAAAAAAAAAAAAAAAAAAAAAAAAAAAAAAAAAAAAAAAAAAAAAAAAAAAAAAAAAAAAAAAAAAAAAAAAAAAAAAAAAAAAAAAAAAAAAAAAAAAAAAAAAAAAAAAAAAAAAAAAAAAAAAAAAAAAAAAAAAAAAAAAAAAAAAAAAAAAAAAAAAAAAAAAAAAAAAAAAAAAAAAAAAAAAAAAAAAAAAAAAAAAAAAAAAAAAAAAAAAAAAAAAAAAAAAAAAAAAAAAAAAAAAAAAAAAAAAAAAAAAAAAAAAAAAAAAAAAAAAAAAAAAAAAAAAAAAAAAAAAAAAAAAAAAAAAAAAAAAAAAAAAAAAAAAAAAAAAAAAAAAAAAAAAAAAAAAAAAAAAAAAAAAAAAAAAAAAAAAAAAAAAAAAAAAAAAAAAAAAAAAAAAAAAAAAAAAAAAAAAAAAAAAAAAAAAAAAAAAAAAAAAAAAAAAAAAAAAAAAAAAAAAAAAAAAAAAAAAAAAAAAAAAAAAAAAAAAAAAAAAAAAAAAAAAAAAAAAAAAAAAAAAAAAAAAAAAAAAAAAAAAAAAAAAAAAAAAAAAAAAAAAAAAAAAAAAAAAAAAAAAAAAAAAAAAAAAAAAAAAAAAAAAAAAAAAAAAAAAAAAAAAAAAAAAAAAAAAAAAAAAAAAAAAAAAAAAAAAAAAAAAAAAAAAAAAAAAAAAAAAAAAAAAAAAAAAAAAAAAAAAAAAAAAAAAAAAAAAAAAAAAAAAAAAAAAAAAAAAAAAAAAAAAAAAAAAAAAAAAAAAAAAAAAAAAAAAAAAAAAAAAAAAAAAAAAAAAAAAAAAAAAAAAAAAAAAAAAAAAAAAAAAAAAAAAAAAAAAAAAAAAAAAAAAAAAAAAAAAAAAAAAAAAAAAAAAAAAAAAAAAAAAAAAAAAAAAAAAAAAAAAAAAAAAAAAAAAAAAAAAAAAAAAAAAAAAAAAAAAAAAAAAAAAAAAAAAAAAAAAAAAAAAAAAAAAAAAAAAAAAAAAAAAAAAAAAAAAAAAAAAAAAAAAAAAAAAAAAAAAAAAAAAAAAAAAAAAAAAAAAAAAAAAAAAAAAAAAAAAAAAAAAAAAAAAAAAAAAAAAAAAAAAAAAAAAAAAAAAAAAAAAAAAAAAAAAAAAAAAAAAAAAAAAAAAAAAAAAAAAAAAAAAAAAAAAAAAAAAAAAAAAAAAAAAAAAAAAAAAAAAAAAAAAAAAAAAAAAAAAAAAAAAAAAAAAAAAAAAAAAAAAAAAAAAAAAAAAAAAAAAAAAAAAAAAAAAAAAAAAAAAAAAAAAAAAAAAAAAAAAAAAAAAAAAAAAAAAAAAAAAAAAAAAAAAAAAAAAAAAAAAAAAAAAAAAAAAAAAAAAAAAAAAAAAAAAAAAAAAAAAAAAAAAAAAAAAAAAAAAAAAAAAAAAAAAAAAAAAAAAAAAAAAAAAAAAAAAAAAAAAAAAAAAAAAAAAAAAAAAAAAAAAAAAAAAAAAAAAAAAAAAAAAAAAAAAAAAAAAAAAAAAAAAAAAAAAAAAAAAAAAAAAAAAAAAAAAAAAAAAAAAAAAAAAAAAAAAAAAAAAAAAAAAAAAAAAAAAAAAAAAAAAAAAAAAAAAAAAAAAAAAAAAAAAAAAAAAAAAAAAAAAAAAAAAAAAAAAAAAAAAAAAAAAAAAAAAAAAAAAAAAAAAAAAAAAAAAAAAAAAAAAAAAAAAAPZYQCQL0dki1nO3/f2b+w3QCkz9oXGSNEPtAdpq+lvDAbu8fEGvCKOIvcOAf+8mLexjsKkjo6LjbLWyLtVVBI3AiuU=</c2pa:manifest></metadata>
<path transform="translate(0,0)" fill="rgb(255,255,255)" d="M 0 0 L 2048 0 L 2048 2048 L 0 2048 L 0 0 z"/>
<path transform="translate(0,0)" fill="rgb(4,3,5)" d="M 656.572 550.534 C 653.226 530.833 654.924 517.458 646.791 497.048 C 616.512 421.067 545.795 430.39 478.574 430.166 C 465.333 429.959 452.388 431.619 439.971 426.16 C 425.61 419.846 419.492 398.891 427.748 385.584 C 473.858 311.27 530.229 243.71 616.626 216.449 C 665.413 201.055 697.376 202.448 747.102 202.429 L 847.733 202.406 L 968.555 202.502 C 983.059 202.547 997.368 202.266 1011.86 202.044 C 1024.44 201.852 1031.14 208.635 1034.73 219.844 C 1045.77 219.968 1059.91 220.306 1070.85 219.574 C 1103.63 217.379 1133.36 241.702 1132.8 276.367 C 1132.48 290.747 1126.49 304.42 1116.15 314.411 C 1095.82 334.096 1071.88 330.835 1045.99 330.491 L 1038.82 330.049 L 1036.16 330.637 C 1033.37 336.116 1029.62 346.823 1023.21 348.488 C 1007.06 352.68 971.701 347.122 956.773 352.935 L 955.361 353.942 C 950.566 352.52 943.223 355.057 938.403 356.417 C 908.269 364.81 880.118 379.146 855.607 398.581 C 845.573 406.622 835.887 415.513 830.624 427.443 C 808.634 452.352 826.369 525.272 815.477 549.858 C 830.53 553.589 843.663 558.552 854.86 569.529 C 882.632 596.753 880.254 619.982 880.161 655.176 C 879.942 674.081 880.001 692.989 880.337 711.893 C 884.782 712.781 889.139 714.06 893.358 715.714 C 911.736 722.718 926.466 736.91 934.149 755.015 C 941.682 772.273 941.917 791.843 934.8 809.276 C 926.771 828.96 913.279 842.188 893.895 850.444 C 905.48 877.827 918.257 906.184 928.81 933.828 C 947.685 944.658 958.971 959.951 973.089 976.051 L 1013.14 1021.41 C 1042.14 1054.18 1081.79 1096.76 1108.64 1130.69 C 1109.56 1088.39 1108.71 1043.13 1108.67 1000.58 L 1108.53 743.36 L 1108.41 650.229 C 1108.25 624.416 1103.79 589.569 1118.91 567.948 C 1129 553.773 1144.33 544.215 1161.5 541.395 C 1178.56 538.667 1195.99 543.06 1209.72 553.547 C 1225.87 565.83 1231.7 579.143 1234.29 598.742 C 1241.34 587.949 1244.53 584.923 1256.03 579.711 L 1255.9 543.707 C 1255.8 518.828 1254.87 498.707 1273.06 479.051 C 1285.02 466.143 1301.7 458.625 1319.3 458.207 C 1336.66 457.819 1353.46 464.387 1365.96 476.449 C 1393.29 502.827 1385.27 552.307 1385.64 588.495 C 1392.41 582.133 1394.22 581.343 1403.13 579.333 C 1407.41 571.317 1410.75 565.089 1417.09 558.475 C 1440.13 534.462 1481.52 535.494 1504.91 558.568 C 1513.4 566.897 1519.34 577.479 1522.02 589.067 C 1525.19 602.485 1524.03 632.754 1524.01 647.922 C 1523.85 680.527 1523.9 713.132 1524.18 745.736 C 1529.39 742.944 1533.74 740.468 1539.35 738.455 C 1544.59 730.251 1549.4 723.541 1556.93 717.299 C 1569.97 706.504 1586.81 701.419 1603.65 703.193 C 1620.18 704.985 1636.14 713.449 1646.55 726.47 C 1653.84 735.653 1658.34 746.739 1659.5 758.407 C 1660.52 767.708 1660.16 783.641 1660.15 793.372 L 1660.07 851.476 L 1660.01 1038.33 L 1660.02 1193.2 C 1660.08 1217.94 1661.19 1250.55 1659 1274.36 C 1658.09 1284.23 1647.05 1319.22 1643.8 1330.68 C 1635.67 1358.99 1627.83 1387.38 1620.28 1415.84 C 1601.93 1484.57 1586.95 1548.83 1626.04 1614.79 C 1637.86 1634.74 1659.09 1647.53 1654.95 1674.71 C 1651.86 1694.94 1634.14 1712.08 1613.43 1713.05 C 1580.99 1714.4 1548.33 1714.02 1515.88 1713.93 L 1336.46 1713.52 L 1176.48 1713.53 C 1152.27 1713.53 1126.44 1715 1102.61 1712.77 C 1081.78 1710.82 1066.91 1689.23 1065.66 1669.52 C 1063.85 1640.86 1084.89 1628.38 1097.34 1605.94 C 1107.19 1587.93 1113.92 1568.39 1117.24 1548.14 C 1124.44 1505.67 1117.93 1458.13 1095.42 1421.19 C 1085.92 1405.6 1070.9 1385.73 1060.02 1370.36 L 1059.91 1495.15 C 1059.93 1517.9 1060.89 1549.39 1058.22 1571.08 C 1056.54 1585.12 1053.04 1598.87 1047.78 1611.99 C 1031.85 1651.37 996.691 1685.26 957.535 1701.46 C 942.734 1707.41 927.141 1711.16 911.252 1712.59 C 890.755 1714.31 857.665 1713.69 836.697 1713.68 L 713.754 1713.49 L 599.146 1713.52 C 559.315 1713.52 521.157 1716.68 483.539 1700.74 C 443.149 1683.37 411.194 1650.83 394.552 1610.13 C 376.717 1566.04 382.31 1502.9 382.356 1455 C 382.415 1393.9 380.333 1332.2 383.77 1271.22 C 391.343 1136.84 426.399 1002.13 478.961 878.525 C 492.206 847.379 533.96 761.842 555.514 739.958 C 567.152 728.141 580.007 721.155 595.271 715.034 C 595.768 694.867 595.157 674.795 595.143 654.654 C 595.134 642.123 594.38 627.253 596.329 615.037 C 597.676 606.438 600.422 598.118 604.46 590.406 C 615.736 568.879 633.978 557.413 656.572 550.534 z"/>
<path transform="translate(0,0)" fill="rgb(1,10,45)" d="M 1034.16 222.908 L 1050.08 223.151 C 1050.1 236.283 1051.63 321.396 1048.6 328.354 L 1045.99 330.491 L 1038.82 330.049 C 1036.73 328.502 1035.62 327.864 1035.36 324.521 C 1034.49 313.266 1034.86 300.594 1034.89 289.328 C 1035.09 267.185 1034.85 245.04 1034.16 222.908 z"/>
<path transform="translate(0,0)" fill="rgb(254,250,14)" d="M 1317.58 461.319 C 1344.49 459.303 1372.04 478.174 1379.79 504.257 C 1383.05 515.239 1382.85 530.033 1382.86 541.545 C 1382.88 557.572 1383.74 574.234 1382.18 590.166 C 1381.42 597.35 1373.81 605.254 1374.51 613.099 C 1374.73 633.691 1374.67 654.344 1374.68 674.949 L 1374.68 809.393 L 1374.46 898.035 C 1374.42 914.862 1374.16 931.485 1374.9 948.32 C 1375.69 966.377 1399.76 965.394 1400.93 949.327 C 1401.59 940.268 1401.16 930.016 1401.15 920.857 L 1401.13 863.063 L 1401.1 673.662 L 1401 624.663 C 1400.98 616.032 1400.56 601.412 1402.04 593.3 C 1404.4 580.993 1410.34 569.658 1419.12 560.717 C 1441.47 537.963 1481.26 538.962 1503.57 561.343 C 1511.42 569.22 1516.88 579.159 1519.32 590.01 C 1522.27 602.807 1521.1 634.775 1521.1 649.534 L 1521.25 749.51 C 1519.24 752.527 1513.84 760.808 1513.54 763.807 C 1511.09 787.916 1512.28 817.467 1512.18 841.607 C 1512.23 876.321 1512.13 911.102 1512.63 945.802 C 1512.93 967.134 1535.36 966.405 1536.34 949.284 C 1537.03 937.31 1536.17 921.603 1536.15 909.123 L 1536.09 812.974 C 1536.07 778.493 1529.75 743.028 1559.75 719.238 C 1572.23 709.148 1588.25 704.503 1604.2 706.348 C 1620.38 708.198 1635.11 716.565 1644.98 729.518 C 1660.1 749.169 1657.15 772.698 1657.08 796.051 L 1657.06 853.849 L 1657 1046.28 L 1656.99 1195.06 C 1657.01 1217.6 1658.05 1252.09 1655.92 1273.24 C 1654.78 1284.55 1642.85 1322.88 1639 1336.25 C 1631.84 1360.99 1625.02 1385.82 1618.53 1410.75 C 1610.08 1442.4 1603.74 1464.34 1599.77 1496.97 L 1224.5 1496.83 L 1122.52 1497.02 C 1120.55 1472.86 1113.84 1449.32 1102.75 1427.76 C 1095.93 1414.52 1085.13 1400.23 1076.35 1387.93 L 1030.59 1324.81 L 889.869 1127.27 C 876.294 1108.67 862.839 1089.98 849.505 1071.2 C 843.286 1062.44 833.039 1048.82 828.408 1039.8 C 822.603 1028.63 819.506 1016.24 819.366 1003.64 C 819.017 983.71 826.61 964.457 840.471 950.128 C 853.951 936.254 872.415 928.34 891.758 928.146 C 935.996 927.857 959.31 965.011 985.634 995.1 L 1065.95 1085.93 C 1077.6 1099.24 1098.13 1124.54 1110.03 1136.2 L 1111.05 1137.18 C 1112.17 1119.65 1111.69 1099.45 1111.64 1081.65 L 1111.37 994.478 L 1111.37 724.746 C 1111.44 697.901 1111.38 671.056 1111.18 644.212 C 1110.96 614.635 1105.98 583.864 1128.62 561.261 C 1161.89 528.039 1221.18 545.233 1230.08 591.552 C 1232.07 601.897 1231.12 619.233 1231.12 630.181 L 1231.24 690.449 L 1231.19 944.459 C 1231.24 953.682 1235 962.578 1246.47 961.481 C 1254.95 960.67 1258.51 954.598 1258.92 946.407 C 1259.5 935.024 1259.2 923.169 1259.16 911.514 L 1259.14 846.04 L 1258.96 611.836 L 1258.85 553.354 C 1258.82 530.012 1256.26 505.027 1271.59 485.516 C 1284.18 469.494 1298.05 464.191 1317.58 461.319 z"/>
<path transform="translate(0,0)" fill="rgb(189,209,254)" d="M 614.535 714.324 C 621.694 713.309 639.322 713.692 647.315 713.682 L 708.949 713.653 L 811.446 713.797 C 827.524 713.804 877.416 711.918 890.842 717.574 C 951.684 743.205 952.432 822.037 890.076 849.179 C 899.583 873.711 916.615 907.927 923.968 931.843 C 917.731 929.525 911.093 927.462 904.53 926.365 C 884.698 922.941 864.325 927.695 848.056 939.542 C 831.276 951.846 820.052 970.296 816.839 990.855 C 810.863 1029.01 832.559 1052.64 853.154 1081.6 L 902.674 1150.75 C 953.666 1222.97 1005.1 1294.88 1056.96 1366.47 L 1057.01 1485.54 C 1057 1516.99 1059.05 1561.56 1051.44 1590.76 C 1039.75 1635.62 1011.43 1668.41 971.782 1691.35 C 926.453 1715.45 883.788 1710.91 834.284 1710.9 L 705.256 1710.84 L 597.508 1710.89 C 573.872 1710.91 543.501 1711.91 520.898 1708.31 C 496.073 1704.37 472.567 1694.49 452.381 1679.51 C 417.327 1653.77 393.996 1615.11 387.566 1572.09 C 384.856 1553.99 385.585 1531.65 385.616 1513.01 L 385.73 1434.4 C 385.78 1367.23 383.7 1295.47 390.208 1229.07 C 405.19 1086.9 445.92 948.633 510.406 821.039 C 519.401 803.33 528.712 786.094 538.477 768.806 C 556.182 737.461 578.527 719.392 614.535 714.324 z"/>
<path transform="translate(0,0)" fill="rgb(3,6,109)" d="M 698.764 205.457 C 706.847 204.394 730.362 205.027 739.764 205.054 L 816.164 205.003 C 864.013 204.828 911.863 204.91 959.711 205.249 C 976.95 205.333 994.159 204.728 1011.42 204.817 C 1021.17 204.339 1030.14 210.735 1030.9 221.159 C 1033.19 247.954 1030.66 276.852 1031.92 303.49 C 1034.32 354.301 1026.35 345.978 984.906 346.886 C 977.867 347.089 970.839 347.585 963.84 348.372 C 931.009 352.185 903.641 364.177 876.564 380.206 C 807.402 421.15 815.987 457.819 816.444 528.552 C 816.487 535.05 817.239 543.017 813.029 548.309 C 808.956 549.286 766.831 548.019 759.34 548.022 C 736.297 547.98 680.331 546.539 659.251 550.148 C 656.892 535.302 657.97 524.856 653.697 508.81 C 649.591 493.019 642.157 478.288 631.895 465.603 C 593.099 418.416 531.257 428.775 477.06 427.532 C 448.538 426.878 433.608 431.541 425.636 397.471 C 436.116 370.912 477.618 318.874 498.595 296.416 C 552.529 238.673 619.665 207.707 698.764 205.457 z"/>
<path transform="translate(0,0)" fill="rgb(4,3,5)" d="M 730.953 470.697 C 741.483 466.89 753.102 472.362 756.875 482.904 C 760.648 493.447 755.138 505.048 744.583 508.787 C 734.077 512.508 722.54 507.029 718.785 496.535 C 715.03 486.041 720.471 474.486 730.953 470.697 z"/>
<path transform="translate(0,0)" fill="rgb(1,10,45)" d="M 732.801 473.709 C 741.561 471.013 750.849 475.927 753.547 484.687 C 756.245 493.446 751.333 502.735 742.574 505.435 C 733.812 508.136 724.52 503.221 721.821 494.459 C 719.122 485.697 724.038 476.406 732.801 473.709 z"/>
<path transform="translate(0,0)" fill="rgb(254,250,14)" d="M 1108.11 1592.06 C 1163.52 1591.36 1220.19 1592.19 1275.76 1592.2 L 1611.11 1592.11 C 1614.06 1599.37 1621.19 1613.98 1625.99 1620.03 C 1644.1 1642.89 1664.68 1665.47 1642.71 1694.78 C 1635.03 1705.02 1624.53 1708.87 1611.87 1710.65 C 1589.25 1712.01 1557.16 1711.02 1533.54 1711.01 L 1385.98 1711 L 1198 1710.92 C 1170.09 1710.88 1142.27 1711.08 1114.3 1711.08 C 1095.05 1711.08 1078.17 1701.47 1071.43 1682.81 C 1061.77 1656.08 1077.4 1638.55 1092.51 1619.14 C 1098.35 1611.64 1104.03 1600.82 1108.11 1592.06 z"/>
<path transform="translate(0,0)" fill="rgb(207,196,34)" d="M 1122.92 1499.98 L 1599.22 1499.79 C 1596.62 1535.52 1599.42 1555 1610.27 1589.14 L 1600.25 1589.12 L 1108.99 1589.07 C 1121.42 1558.93 1123.96 1531.9 1122.92 1499.98 z"/>
<path transform="translate(0,0)" fill="rgb(3,6,109)" d="M 672.53 551.419 C 676.188 551.001 681.256 551.023 685.014 551.01 C 719.793 550.783 754.292 551.27 789.092 551.339 C 814.273 551.39 835.514 554.537 854.342 573.017 C 881.073 599.253 878.069 624.565 878.081 658.915 L 878.539 710.995 C 854.879 710.495 830.927 710.78 807.143 710.381 C 765.928 710.131 724.711 710.23 683.497 710.679 C 654.973 710.831 626.082 709.567 597.945 713.373 C 597.199 697.942 597.419 681.447 597.42 665.836 C 597.424 633.636 593.88 604.835 616.425 578.368 C 630.545 561.79 651.111 552.989 672.53 551.419 z"/>
<path transform="translate(0,0)" fill="rgb(207,196,34)" d="M 1254.3 583.792 C 1255.46 584.234 1254.76 583.851 1256.04 585.459 L 1256.07 850.974 L 1256.04 920.623 C 1256.03 936.094 1261.78 963.381 1238.86 957.989 C 1232.15 951.468 1234.33 945.03 1234.25 936.157 C 1234.11 921.904 1234.28 907.603 1234.3 893.342 L 1234.01 685.952 C 1233.94 661.717 1233.78 637.41 1233.96 613.172 C 1234.07 599.283 1243.08 590.692 1254.3 583.792 z"/>
<path transform="translate(0,0)" fill="rgb(207,196,34)" d="M 1399.46 582.857 L 1400.29 584.208 C 1397.43 598.04 1398.12 614.311 1398.13 628.553 L 1398.17 682.536 L 1398.22 880.936 C 1398.21 902.562 1398.63 926.947 1397.85 948.639 C 1397.52 957.611 1389.95 960.008 1381.54 957.442 C 1379.41 954.94 1377.49 951.853 1377.45 948.465 C 1377.14 924.435 1377.24 900.382 1377.24 876.35 L 1377.29 733.131 L 1377.38 648.233 C 1377.45 620.207 1371.92 599.269 1399.46 582.857 z"/>
<path transform="translate(0,0)" fill="rgb(3,6,109)" d="M 1053.03 222.779 C 1066.74 220.977 1084.96 221.776 1098.19 226.303 C 1100.92 227.619 1101.94 227.655 1104.69 229.456 L 1105.98 230.284 C 1107.09 231.014 1107.54 231.497 1108.5 232.41 L 1109.84 233.659 C 1114.68 236.072 1123.34 246.543 1125.52 252.204 C 1126.83 256.181 1128.09 260.173 1129.3 264.18 C 1129.96 265.318 1129.86 265.227 1129.75 266.612 C 1130.08 269.627 1130.43 272.833 1130.33 275.868 C 1129.75 290.238 1123.34 303.75 1112.56 313.277 C 1094.36 329.499 1075.31 329.057 1052.9 327.71 C 1051.71 295.162 1052.9 255.839 1053.03 222.779 z"/>
<path transform="translate(0,0)" fill="rgb(1,10,45)" d="M 1109.84 233.659 C 1114.68 236.072 1123.34 246.543 1125.52 252.204 C 1126.73 253.226 1109.47 233.176 1109.84 233.659 z"/>
<path transform="translate(0,0)" fill="rgb(1,10,45)" d="M 1098.19 226.303 C 1100.92 227.619 1101.94 227.655 1104.69 229.456 L 1105.98 230.284 C 1107.09 231.014 1107.54 231.497 1108.5 232.41 L 1109.84 233.659 C 1107.14 231.975 1100.3 228.226 1098.19 226.303 z"/>
<path transform="translate(0,0)" fill="rgb(207,196,34)" d="M 1535.95 742.863 L 1536.94 744.467 C 1531.63 764.575 1533.28 796.596 1533.27 818.533 L 1533.51 913.311 C 1533.58 925.731 1534.49 941.309 1532.35 953.652 C 1531.26 959.978 1524.36 959.719 1519.35 957.942 C 1517.42 955.384 1515.24 952.433 1515.23 949.075 C 1515.1 921.104 1515.24 893.127 1515.18 865.153 L 1515.04 804.563 C 1514.98 776.931 1509.54 759.093 1535.95 742.863 z"/>
<path transform="translate(0,0)" fill="rgb(1,10,45)" d="M 956.773 352.935 C 964.135 410.916 979.682 464.141 1010.69 514.337 C 1018.87 529.556 1032.16 542.899 1039.93 558.06 C 1044.98 567.908 1033.5 583.784 1023.44 583.394 C 1008.4 582.812 987.025 559.542 976.309 549.917 L 908.532 489.428 C 898.159 480.186 882.239 465.41 872.154 457.274 C 855.353 443.722 844.54 452.602 830.624 427.443 C 835.887 415.513 845.573 406.622 855.607 398.581 C 880.118 379.146 908.269 364.81 938.403 356.417 C 943.223 355.057 950.566 352.52 955.361 353.942 L 956.773 352.935 z"/>
</svg>