<svg version="1.1" xmlns="http://www.w3.org/2000/svg" style="display: block;" viewBox="0 0 2048 2048" width="1024" height="1024" preserveAspectRatio="none" xmlns:c2pa="http://c2pa.org/manifest"><metadata><c2pa:manifest>AAAzs2p1bWIAAAAeanVtZGMycGEAEQAQgAAAqgA4m3EDYzJwYQAAADONanVtYgAAAEdqdW1kYzJtYQARABCAAACqADibcQN1cm46YzJwYTo5MzllMGNkNi04YWMzLTRkMjEtYjYxMy0wZmY5NzJiOTBmMWIAAAAB4mp1bWIAAAApanVtZGMyYXMAEQAQgAAAqgA4m3EDYzJwYS5hc3NlcnRpb25zAAAAAO1qdW1iAAAAQWp1bWRjYm9yABEAEIAAAKoAOJtxE2MycGEuYWN0aW9ucy52MgAAAAAYYzJzaBR9pK7CcEsrgVA/xXbaZBAAAACkY2JvcqFnYWN0aW9uc4GjZmFjdGlvbmxjMnBhLmNyZWF0ZWRxZGlnaXRhbFNvdXJjZVR5cGV4Rmh0dHA6Ly9jdi5pcHRjLm9yZy9uZXdzY29kZXMvZGlnaXRhbHNvdXJjZXR5cGUvdHJhaW5lZEFsZ29yaXRobWljTWVkaWFrZGVzY3JpcHRpb252Q3JlYXRlZCBieSBSZWNyYWZ0IEFJLgAAAMRqdW1iAAAAQGp1bWRjYm9yABEAEIAAAKoAOJtxE2MycGEuaGFzaC5kYXRhAAAAABhjMnNoig728HTnx7d2Fg2vFZA28QAAAHxjYm9ypWpleGNsdXNpb25zgaJlc3RhcnQY22ZsZW5ndGgZRPBkbmFtZW5qdW1iZiBtYW5pZmVzdGNhbGdmc2hhMjU2ZGhhc2hYIH41kS/3dNW4jyblgYWLxMr3VV9LNal00LFRuTXNvBLqY3BhZEkAAAAAAAAAAAAAAAI0anVtYgAAACdqdW1kYzJjbAARABCAAACqADibcQNjMnBhLmNsYWltLnYyAAAAAgVjYm9ypmppbnN0YW5jZUlEeCx4bXA6aWlkOjdkYTVlOGY2LTJiMzAtNGFkMy05NDgzLWFlOTE2NjRkYTFiMHRjbGFpbV9nZW5lcmF0b3JfaW5mb6NkbmFtZWpyZWNyYWZ0LmFpZ3ZlcnNpb254KDgxY2U4MmUyYzVjM2NiZmJlOGM2ZmJlMTc5ZDVmOGQ5MWM0MDljZTF3b3JnLmNvbnRlbnRhdXRoLmMycGFfcnNmMC45MC43aXNpZ25hdHVyZXhNc2VsZiNqdW1iZj0vYzJwYS91cm46YzJwYTo5MzllMGNkNi04YWMzLTRkMjEtYjYxMy0wZmY5NzJiOTBmMWIvYzJwYS5zaWduYXR1cmVyY3JlYXRlZF9hc3NlcnRpb25zgqJjdXJseCpzZWxmI2p1bWJmPWMycGEuYXNzZXJ0aW9ucy9jMnBhLmFjdGlvbnMudjJkaGFzaFggv0sqVol09+9c/FfnPpcLup36Hsl1Fxkk9KWa1DypoIOiY3VybHgpc2VsZiNqdW1iZj1jMnBhLmFzc2VydGlvbnMvYzJwYS5oYXNoLmRhdGFkaGFzaFggxl69NN0QHSdS6yRd/yH3NdNZ04avdRYBpV77EeGbATBoZGM6dGl0bGV4GlJlY3JhZnQgQUkgR2VuZXJhdGVkIEltYWdlY2FsZ2ZzaGEyNTYAAC8oanVtYgAAAChqdW1kYzJjcwARABCAAACqADibcQNjMnBhLnNpZ25hdHVyZQAAAC74Y2JvctKEWQPsogEmGCGCWQH0MIIB8DCCAZWgAwIBAgIUJcFH1Va4pZJDhzepwEtzPPNj2YMwCgYIKoZIzj0EAwIwQTELMAkGA1UEBhMCVVMxEzARBgNVBAoMClJlY3JhZnQgQUkxHTAbBgNVBAMMFFJlY3JhZnQgQzJQQSBSb290IENBMB4XDTI2MDkxMDE2NTIzNFoXDTI3MDkxMDE2NTIzNFowNzELMAkGA1UEBhMCVVMxEzARBgNVBAoMClJlY3JhZnQgQUkxEzARBgNVBAMMCnJlY3JhZnQuYWkwWTATBgcqhkjOPQIBBggqhkjOPQMBBwNCAASoOPdqG3YmNRdGd+dltfh1ikcE/nkLm8YK10H29taFa8iegusHYB1678yl5Bs18hLaV/Fhd+Ni32xAlnHdbimFo3UwczAMBgNVHRMBAf8EAjAAMA4GA1UdDwEB/wQEAwIGwDATBgNVHSUEDDAKBggrBgEFBQcDBDAdBgNVHQ4EFgQUgVwhvbEXPSSgCubOfUHxCtuoVAQwHwYDVR0jBBgwFoAUc9yF+sfWlRHeWv2Iucaec5jwdAgwCgYIKoZIzj0EAwIDSQAwRgIhAJltDpQN+vbXITLxb+8BNwSL6/5WktO4Sevkb0VXjtfWAiEAqhoz7z/sN32NxdnnZsQVTeu3P7CgGtJdXFx283fp08RZAewwggHoMIIBjaADAgECAhQAydo/NKOQWWu/4V5FktVQHX7jTDAKBggqhkjOPQQDAjBBMQswCQYDVQQGEwJVUzETMBEGA1UECgwKUmVjcmFmdCBBSTEdMBsGA1UEAwwUUmVjcmFmdCBDMlBBIFJvb3QgQ0EwHhcNMjYwOTEwMTY1MjM0WhcNMzYwOTA3MTY1MjM0WjBBMQswCQYDVQQGEwJVUzETMBEGA1UECgwKUmVjcmFmdCBBSTEdMBsGA1UEAwwUUmVjcmFmdCBDMlBBIFJvb3QgQ0EwWTATBgcqhkjOPQIBBggqhkjOPQMBBwNCAAQbQ+eF6fkpnHhTwrMxSBLh/JhROWkzsC8L8jN1r1Rlf8oECvzEFk3WujloPtNs3PLADriqR5rGtd+8giFuiTLno2MwYTAfBgNVHSMEGDAWgBRz3IX6x9aVEd5a/Yi5xp5zmPB0CDAPBgNVHRMBAf8EBTADAQH/MA4GA1UdDwEB/wQEAwIBhjAdBgNVHQ4EFgQUc9yF+sfWlRHeWv2Iucaec5jwdAgwCgYIKoZIzj0EAwIDSQAwRgIhAND2Z+xryBRnMbxk8eAzMcAq8bzl0rfA9Y2z7q5QoEUeAiEA6ZbI3e47h5clRZaARSOOotKXsK/YQMWC3vj91d3bmlOhY3BhZFkqtAAAAAAAAAAAAAAAAAAAAAAAAAAAAAAAAAAAAAAAAAAAAAAAAAAAAAAAAAAAAAAAAAAAAAAAAAAAAAAAAAAAAAAAAAAAAAAAAAAAAAAAAAAAAAAAAAAAAAAAAAAAAAAAAAAAAAAAAAAAAAAAAAAAAAAAAAAAAAAAAAAAAAAAAAAAAAAAAAAAAAAAAAAAAAAAAAAAAAAAAAAAAAAAAAAAAAAAAAAAAAAAAAAAAAAAAAAAAAAAAAAAAAAAAAAAAAAAAAAAAAAAAAAAAAAAAAAAAAAAAAAAAAAAAAAAAAAAAAAAAAAAAAAAAAAAAAAAAAAAAAAAAAAAAAAAAAAAAAAAAAAAAAAAAAAAAAAAAAAAAAAAAAAAAAAAAAAAAAAAAAAAAAAAAAAAAAAAAAAAAAAAAAAAAAAAAAAAAAAAAAAAAAAAAAAAAAAAAAAAAAAAAAAAAAAAAAAAAAAAAAAAAAAAAAAAAAAAAAAAAAAAAAAAAAAAAAAAAAAAAAAAAAAAAAAAAAAAAAAAAAAAAAAAAAAAAAAAAAAAAAAAAAAAAAAAAAAAAAAAAAAAAAAAAAAAAAAAAAAAAAAAAAAAAAAAAAAAAAAAAAAAAAAAAAAAAAAAAAAAAAAAAAAAAAAAAAAAAAAAAAAAAAAAAAAAAAAAAAAAAAAAAAAAAAAAAAAAAAAAAAAAAAAAAAAAAAAAAAAAAAAAAAAAAAAAAAAAAAAAAAAAAAAAAAAAAAAAAAAAAAAAAAAAAAAAAAAAAAAAAAAAAAAAAAAAAAAAAAAAAAAAAAAAAAAAAAAAAAAAAAAAAAAAAAAAAAAAAAAAAAAAAAAAAAAAAAAAAAAAAAAAAAAAAAAAAAAAAAAAAAAAAAAAAAAAAAAAAAAAAAAAAAAAAAAAAAAAAAAAAAAAAAAAAAAAAAAAAAAAAAAAAAAAAAAAAAAAAAAAAAAAAAAAAAAAAAAAAAAAAAAAAAAAAAAAAAAAAAAAAAAAAAAAAAAAAAAAAAAAAAAAAAAAAAAAAAAAAAAAAAAAAAAAAAAAAAAAAAAAAAAAAAAAAAAAAAAAAAAAAAAAAAAAAAAAAAAAAAAAAAAAAAAAAAAAAAAAAAAAAAAAAAAAAAAAAAAAAAAAAAAAAAAAAAAAAAAAAAAAAAAAAAAAAAAAAAAAAAAAAAAAAAAAAAAAAAAAAAAAAAAAAAAAAAAAAAAAAAAAAAAAAAAAAAAAAAAAAAAAAAAAAAAAAAAAAAAAAAAAAAAAAAAAAAAAAAAAAAAAAAAAAAAAAAAAAAAAAAAAAAAAAAAAAAAAAAAAAAAAAAAAAAAAAAAAAAAAAAAAAAAAAAAAAAAAAAAAAAAAAAAAAAAAAAAAAAAAAAAAAAAAAAAAAAAAAAAAAAAAAAAAAAAAAAAAAAAAAAAAAAAAAAAAAAAAAAAAAAAAAAAAAAAAAAAAAAAAAAAAAAAAAAAAAAAAAAAAAAAAAAAAAAAAAAAAAAAAAAAAAAAAAAAAAAAAAAAAAAAAAAAAAAAAAAAAAAAAAAAAAAAAAAAAAAAAAAAAAAAAAAAAAAAAAAAAAAAAAAAAAAAAAAAAAAAAAAAAAAAAAAAAAAAAAAAAAAAAAAAAAAAAAAAAAAAAAAAAAAAAAAAAAAAAAAAAAAAAAAAAAAAAAAAAAAAAAAAAAAAAAAAAAAAAAAAAAAAAAAAAAAAAAAAAAAAAAAAAAAAAAAAAAAAAAAAAAAAAAAAAAAAAAAAAAAAAAAAAAAAAAAAAAAAAAAAAAAAAAAAAAAAAAAAAAAAAAAAAAAAAAAAAAAAAAAAAAAAAAAAAAAAAAAAAAAAAAAAAAAAAAAAAAAAAAAAAAAAAAAAAAAAAAAAAAAAAAAAAAAAAAAAAAAAAAAAAAAAAAAAAAAAAAAAAAAAAAAAAAAAAAAAAAAAAAAAAAAAAAAAAAAAAAAAAAAAAAAAAAAAAAAAAAAAAAAAAAAAAAAAAAAAAAAAAAAAAAAAAAAAAAAAAAAAAAAAAAAAAAAAAAAAAAAAAAAAAAAAAAAAAAAAAAAAAAAAAAAAAAAAAAAAAAAAAAAAAAAAAAAAAAAAAAAAAAAAAAAAAAAAAAAAAAAAAAAAAAAAAAAAAAAAAAAAAAAAAAAAAAAAAAAAAAAAAAAAAAAAAAAAAAAAAAAAAAAAAAAAAAAAAAAAAAAAAAAAAAAAAAAAAAAAAAAAAAAAAAAAAAAAAAAAAAAAAAAAAAAAAAAAAAAAAAAAAAAAAAAAAAAAAAAAAAAAAAAAAAAAAAAAAAAAAAAAAAAAAAAAAAAAAAAAAAAAAAAAAAAAAAAAAAAAAAAAAAAAAAAAAAAAAAAAAAAAAAAAAAAAAAAAAAAAAAAAAAAAAAAAAAAAAAAAAAAAAAAAAAAAAAAAAAAAAAAAAAAAAAAAAAAAAAAAAAAAAAAAAAAAAAAAAAAAAAAAAAAAAAAAAAAAAAAAAAAAAAAAAAAAAAAAAAAAAAAAAAAAAAAAAAAAAAAAAAAAAAAAAAAAAAAAAAAAAAAAAAAAAAAAAAAAAAAAAAAAAAAAAAAAAAAAAAAAAAAAAAAAAAAAAAAAAAAAAAAAAAAAAAAAAAAAAAAAAAAAAAAAAAAAAAAAAAAAAAAAAAAAAAAAAAAAAAAAAAAAAAAAAAAAAAAAAAAAAAAAAAAAAAAAAAAAAAAAAAAAAAAAAAAAAAAAAAAAAAAAAAAAAAAAAAAAAAAAAAAAAAAAAAAAAAAAAAAAAAAAAAAAAAAAAAAAAAAAAAAAAAAAAAAAAAAAAAAAAAAAAAAAAAAAAAAAAAAAAAAAAAAAAAAAAAAAAAAAAAAAAAAAAAAAAAAAAAAAAAAAAAAAAAAAAAAAAAAAAAAAAAAAAAAAAAAAAAAAAAAAAAAAAAAAAAAAAAAAAAAAAAAAAAAAAAAAAAAAAAAAAAAAAAAAAAAAAAAAAAAAAAAAAAAAAAAAAAAAAAAAAAAAAAAAAAAAAAAAAAAAAAAAAAAAAAAAAAAAAAAAAAAAAAAAAAAAAAAAAAAAAAAAAAAAAAAAAAAAAAAAAAAAAAAAAAAAAAAAAAAAAAAAAAAAAAAAAAAAAAAAAAAAAAAAAAAAAAAAAAAAAAAAAAAAAAAAAAAAAAAAAAAAAAAAAAAAAAAAAAAAAAAAAAAAAAAAAAAAAAAAAAAAAAAAAAAAAAAAAAAAAAAAAAAAAAAAAAAAAAAAAAAAAAAAAAAAAAAAAAAAAAAAAAAAAAAAAAAAAAAAAAAAAAAAAAAAAAAAAAAAAAAAAAAAAAAAAAAAAAAAAAAAAAAAAAAAAAAAAAAAAAAAAAAAAAAAAAAAAAAAAAAAAAAAAAAAAAAAAAAAAAAAAAAAAAAAAAAAAAAAAAAAAAAAAAAAAAAAAAAAAAAAAAAAAAAAAAAAAAAAAAAAAAAAAAAAAAAAAAAAAAAAAAAAAAAAAAAAAAAAAAAAAAAAAAAAAAAAAAAAAAAAAAAAAAAAAAAAAAAAAAAAAAAAAAAAAAAAAAAAAAAAAAAAAAAAAAAAAAAAAAAAAAAAAAAAAAAAAAAAAAAAAAAAAAAAAAAAAAAAAAAAAAAAAAAAAAAAAAAAAAAAAAAAAAAAAAAAAAAAAAAAAAAAAAAAAAAAAAAAAAAAAAAAAAAAAAAAAAAAAAAAAAAAAAAAAAAAAAAAAAAAAAAAAAAAAAAAAAAAAAAAAAAAAAAAAAAAAAAAAAAAAAAAAAAAAAAAAAAAAAAAAAAAAAAAAAAAAAAAAAAAAAAAAAAAAAAAAAAAAAAAAAAAAAAAAAAAAAAAAAAAAAAAAAAAAAAAAAAAAAAAAAAAAAAAAAAAAAAAAAAAAAAAAAAAAAAAAAAAAAAAAAAAAAAAAAAAAAAAAAAAAAAAAAAAAAAAAAAAAAAAAAAAAAAAAAAAAAAAAAAAAAAAAAAAAAAAAAAAAAAAAAAAAAAAAAAAAAAAAAAAAAAAAAAAAAAAAAAAAAAAAAAAAAAAAAAAAAAAAAAAAAAAAAAAAAAAAAAAAAAAAAAAAAAAAAAAAAAAAAAAAAAAAAAAAAAAAAAAAAAAAAAAAAAAAAAAAAAAAAAAAAAAAAAAAAAAAAAAAAAAAAAAAAAAAAAAAAAAAAAAAAAAAAAAAAAAAAAAAAAAAAAAAAAAAAAAAAAAAAAAAAAAAAAAAAAAAAAAAAAAAAAAAAAAAAAAAAAAAAAAAAAAAAAAAAAAAAAAAAAAAAAAAAAAAAAAAAAAAAAAAAAAAAAAAAAAAAAAAAAAAAAAAAAAAAAAAAAAAAAAAAAAAAAAAAAAAAAAAAAAAAAAAAAAAAAAAAAAAAAAAAAAAAAAAAAAAAAAAAAAAAAAAAAAAAAAAAAAAAAAAAAAAAAAAAAAAAAAAAAAAAAAAAAAAAAAAAAAAAAAAAAAAAAAAAAAAAAAAAAAAAAAAAAAAAAAAAAAAAAAAAAAAAAAAAAAAAAAAAAAAAAAAAAAAAAAAAAAAAAAAAAAAAAAAAAAAAAAAAAAAAAAAAAAAAAAAAAAAAAAAAAAAAAAAAAAAAAAAAAAAAAAAAAAAAAAAAAAAAAAAAAAAAAAAAAAAAAAAAAAAAAAAAAAAAAAAAAAAAAAAAAAAAAAAAAAAAAAAAAAAAAAAAAAAAAAAAAAAAAAAAAAAAAAAAAAAAAAAAAAAAAAAAAAAAAAAAAAAAAAAAAAAAAAAAAAAAAAAAAAAAAAAAAAAAAAAAAAAAAAAAAAAAAAAAAAAAAAAAAAAAAAAAAAAAAAAAAAAAAAAAAAAAAAAAAAAAAAAAAAAAAAAAAAAAAAAAAAAAAAAAAAAAAAAAAAAAAAAAAAAAAAAAAAAAAAAAAAAAAAAAAAAAAAAAAAAAAAAAAAAAAAAAAAAAAAAAAAAAAAAAAAAAAAAAAAAAAAAAAAAAAAAAAAAAAAAAAAAAAAAAAAAAAAAAAAAAAAAAAAAAAAAAAAAAAAAAAAAAAAAAAAAAAAAAAAAAAAAAAAAAAAAAAAAAAAAAAAAAAAAAAAAAAAAAAAAAAAAAAAAAAAAAAAAAAAAAAAAAAAAAAAAAAAAAAAAAAAAAAAAAAAAAAAAAAAAAAAAAAAAAAAAAAAAAAAAAAAAAAAAAAAAAAAAAAAAAAAAAAAAAAAAAAAAAAAAAAAAAAAAAAAAAAAAAAAAAAAAAAAAAAAAAAAAAAAAAAAAAAAAAAAAAAAAAAAAAAAAAAAAAAAAAAAAAAAAAAAAAAAAAAAAAAAAAAAAAAAAAAAAAAAAAAAAAAAAAAAAAAAAAAAAAAAAAAAAAAAAAAAAAAAAAAAAAAAAAAAAAAAAAAAAAAAAAAAAAAAAAAAAAAAAAAAAAAAAAAAAAAAAAAAAAAAAAAAAAAAAAAAAAAAAAAAAAAAAAAAAAAAAAAAAAAAAAAAAAAAAAAAAAAAAAAAAAAAAAAAAAAAAAAAAAAAAAAAAAAAAAAAAAAAAAAAAAAAAAAAAAAAAAAAAAAAAAAAAAAAAAAAAAAAAAAAAAAAAAAAAAAAAAAAAAAAAAAAAAAAAAAAAAAAAAAAAAAAAAAAAAAAAAAAAAAAAAAAAAAAAAAAAAAAAAAAAAAAAAAAAAAAAAAAAAAAAAAAAAAAAAAAAAAAAAAAAAAAAAAAAAAAAAAAAAAAAAAAAAAAAAAAAAAAAAAAAAAAAAAAAAAAAAAAAAAAAAAAAAAAAAAAAAAAAAAAAAAAAAAAAAAAAAAAAAAAAAAAAAAAAAAAAAAAAAAAAAAAAAAAAAAAAAAAAAAAAAAAAAAAAAAAAAAAAAAAAAAAAAAAAAAAAAAAAAAAAAAAAAAAAAAAAAAAAAAAAAAAAAAAAAAAAAAAAAAAAAAAAAAAAAAAAAAAAAAAAAAAAAAAAAAAAAAAAAAAAAAAAAAAAAAAAAAAAAAAAAAAAAAAAAAAAAAAAAAAAAAAAAAAAAAAAAAAAAAAAAAAAAAAAAAAAAAAAAAAAAAAAAAAAAAAAAAAAAAAAAAAAAAAAAAAAAAAAAAAAAAAAAAAAAAAAAAAAAAAAAAAAAAAAAAAAAAAAAAAAAAAAAAAAAAAAAAAAAAAAAAAAAAAAAAAAAAAAAAAAAAAAAAAAAAAAAAAAAAAAAAAAAAAAAAAAAAAAAAAAAAAAAAAAAAAAAAAAAAAAAAAAAAAAAAAAAAAAAAAAAAAAAAAAAAAAAAAAAAAAAAAAAAAAAAAAAAAAAAAAAAAAAAAAAAAAAAAAAAAAAAAAAAAAAAAAAAAAAAAAAAAAAAAAAAAAAAAAAAAAAAAAAAAAAAAAAAAAAAAAAAAAAAAAAAAAAAAAAAAAAAAAAAAAAAAAAAAAAAAAAAAAAAAAAAAAAAAAAAAAAAAAAAAAAAAAAAAAAAAAAAAAAAAAAAAAAAAAAAAAAAAAAAAAAAAAAAAAAAAAAAAAAAAAAAAAAAAAAAAAAAAAAAAAAAAAAAAAAAAAAAAAAAAAAAAAAAAAAAAAAAAAAAAAAAAAAAAAAAAAAAAAAAAAAAAAAAAAAAAAAAAAAAAAAAAAAAAAAAAAAAAAAAAAAAAAAAAAAAAAAAAAAAAAAAAAAAAAAAAAAAAAAAAAAAAAAAAAAAAAAAAAAAAAAAAAAAAAAAAAAAAAAAAAAAAAAAAAAAAAAAAAAAAAAAAAAAAAAAAAAAAAAAAAAAAAAAAAAAAAAAAAAAAAAAAAAAAAAAAAAAAAAAAAAAAAAAAAAAAAAAAAAAAAAAAAAAAAAAAAAAAAAAAAAAAAAAAAAAAAAAAAAAAAAAAAAAAAAAAAAAAAAAAAAAAAAAAAAAAAAAAAAAAAAAAAAAAAAAAAAAAAAAAAAAAAAAAAAAAAAAAAAAAAAAAAAAAAAAAAAAAAAAAAAAAAAAAAAAAAAAAAAAAAAAAAAAAAAAAAAAAAAAAAAAAAAAAAAAAAAAAAAAAAAAAAAAAAAAAAAAAAAAAAAAAAAAAAAAAAAAAAAAAAAAAAAAAAAAAAAAAAAAAAAAAAAAAAAAAAAAAAAAAAAAAAAAAAAAAAAAAAAAAAAAAAAAAAAAAAAAAAAAAAAAAAAAAAAAAAAAAAAAAAAAAAAAAAAAAAAAAAAAAAAAAAAAAAAAAAAAAAAAAAAAAAAAAAAAAAAAAAAAAAAAAAAAAAAAAAAAAAAAAAAAAAAAAAAAAAAAAAAAAAAAAAAAAAAAAAAAAAAAAAAAAAAAAAAAAAAAAAAAAAAAAAAAAAAAAAAAAAAAAAAAAAAAAAAAAAAAAAAAAAAAAAAAAAAAAAAAAAAAAAAAAAAAAAAAAAAAAAAAAAAAAAAAAAAAAAAAAAAAAAAAAAAAAAAAAAAAAAAAAAAAAAAAAAAAAAAAAAAAAAAAAAAAAAAAAAAAAAAAAAAAAAAAAAAAAAAAAAAAAAAAAAAAAAAAAAAAAAAAAAAAAAAAAAAAAAAAAAAAAAAAAAAAAAAAAAAAAAAAAAAAAAAAAAAAAAAAAAAAAAAAAAAAAAAAAAAAAAAAAAAAAAAAAAAAAAAAAAAAAAAAAAAAAAAAAAAAAAAAAAAAAAAAAAAAAAAAAAAAAAAAAAAAAAAAAAAAAAAAAAAAAAAAAAAAAAAAAAAAAAAAAAAAAAAAAAAAAAAAAAAAAAAAAAAAAAAAAAAAAAAAAAAAAAAAAAAAAAAAAAAAAAAAAAAAAAAAAAAAAAAAAAAAAAAAAAAAAAAAAAAAAAAAAAAAAAAAAAAAAAAAAAAAAAAAAAAAAAAAAAAAAAAAAAAAAAAAAAAAAAAAAAAAAAAAAAAAAAAAAAAAAAAAAAAAAAAAAAAAAAAAAAAAAAAAAAAAAAAAAAAAAAAAAAAAAAAAAAAAAAAAAAAAAAAAAAAAAAAAAAAAAAAAAAAAAAAAAAAAAAAAAAAAAAAAAAAAAAAAAAAAAAAAAAAAAAAAAAAAAAAAAAAAAAAAAAAAAAAAAAAAAAAAAAAAAAAAAAAAAAAAAAAAAAAAAAAAAAAAAAAAAAAAAAAAAAAAAAAAAAAAAAAAAAAAAAAAAAAAAAAAAAAAAAAAAAAAAAAAAAAAAAAAAAAAAAAAAAAAAAAAAAAAAAAAAAAAAAAAAAAAAAAAAAAAAAAAAAAAAAAAAAAAAAAAAAAAAAAAAAAAAAAAAAAAAAAAAAAAAAAAAAAAAAAAAAAAAAAAAAAAAAAAAAAAAAAAAAAAAAAAAAAAAAAAAAAAAAAAAAAAAAAAAAAAAAAAAAAAAAAAAAAAAAAAAAAAAAAAAAAAAAAAAAAAAAAAAAAAAAAAAAAAAAAAAAAAAAAAAAAAAAAAAAAAAAAAAAAAAAAAAAAAAAAAAAAAAAAAAAAAAAAAAAAAAAAAAAAAAAAAAAAAAAAAAAAAAAAAAAAAAAAAAAAAAAAAAAAAAAAAAAAAAAAAAAAAAAAAAAAAAAAAAAAAAAAAAAAAAAAAAAAAAAAAAAAAAAAAAAAAAAAAAAAAAAAAAAAAAAAAAAAAAAAAAAAAAAAAAAAAAAAAAAAAAAAAAAAAAAAAAAAAAAAAAAAAAAAAAAAAAAAAAAAAAAAAAAAAAAAAAAAAAAAAAAAAAAAAAAAAAAAAAAAAAAAAAAAAAAAAAAAAAAAAAAAAAAAAAAAAAAAAAAAAAAAAAAAAAAAAAAAAAAAAAAAAAAAAAAAAAAAAAAAAAAAAAAAAAAAAAAAAAAAAAAAAAAAAAAAAAAAAAAAAAAAAAAAAAAAAAAAAAAAAAAAAAAAAAAAAAAAAAAAAAAAAAAAAAAAAAAAAAAAAAAAAAAAAAAAAAAAAAAAAAAAAAAAAAAAAAAAAAAAAAAAAAAAAAAAAAAAAAAAAAAAAAAAAAAAAAAAAAAAAAAAAAAAAAAAAAAAAAAAAAAAAAAAAAAAAAAAAAAAAAAAAAAAAAAAAAAAAAAAAAAAAAAAAAAAAAAAAAAAAAAAAAAAAAAAAAAAAAAAAAAAAAAAAAAAAAAAAAAAAAAAAAAAAAAAAAAAAAAAAAAAAAAAAAAAAAAAAAAAAAAAAAAAAAAAAAAAAAAAAAAAAAAAAAAAAAAAAAAAAAAAAAAAAAAAAAAAAAAAAAAAAAAAAAAAAAAAAAAAAAAAAAAAAAAAAAAAAAAAAAAAAAAAAAAAAAAAAAAAAAAAAAAAAAAAAAAAAAAAAAAAAAAAAAAAAAAAAAAAAAAAAAAAAAAAAAAAAAAAAAAAAAAAAAAAAAAAAAAAAAAAAAAAAAAAAAAAAAAAAAAAAAAAAAAAAAAAAAAAAAAAAAAAAAAAAAAAAAAAAAAAAAAAAAAAAAAAAAAAAAAAAAAAAAAAAAAAAAAAAAAAAAAAAAAAAAAAAAAAAAAAAAAAAAAAAAAAAAAAAAAAAAAAAAAAAAAAAAAAAAAAAAAAAAAAAAAAAAAAAAAAAAAAAAAAAAAAAAAAAAAAAAAAAAAAAAAAAAAAAAAAAAAAAAAAAAAAAAAAAAAAAAAAAAAAAAAAAAAAAAAAAAAAAAAAAAAAAAAAAAAAAAAAAAAAAAAAAAAAAAAAAAAAAAAAAAAAAAAAAAAAAAAAAAAAAAAAAAAAAAAAAAAAAAAAAAAAAAAAAAAAAAAAAAAAAAAAAAAAAAAAAAAAAAAAAAAAAAAAAAAAAAAAAAAAAAAAAAAAAAAAAAAAAAAAAAAAAAAAAAAAAAAAAAAAAAAAAAAAAAAAAAAAAAAAAAAAAAAAAAAAAAAAAAAAAAAAAAAAAAAAAAAAAAAAAAAAAAAAAAAAAAAAAAAAAAAAAAAAAAAAAAAAAAAAAAAAAAAAAAAAAAAAAAAAAAAAAAAAAAAAAAAAAAAAAAAAAAAAAAAAAAAAAAAAAAAAAAAAAAAAAAAAAAAAAAAAAAAAAAAAAAAAAAAAAAAAAAAAAAAAAAAAAAAAAAAAAAAAAAAAAAAAAAAAAAAAAAAAAAAAAAAAAAAAAAAAAAAAAAAAAAAAAAAAAAAAAAAAAAAAAAAAAAAAAAAAAAAAAAAAAAAAAAAAAAAAAAAAAAAAAAAAAAAAAAAAAAAAAAAAAAAAAAAAAAAAAAAAAAAAAAAAAAAAAAAAAAAAAAAAAAAAAAAAAAAAAAAAAAAAAAAAAAAAAAAAAAAAAAAAAAAAAAAAAAAAAAAAAAAAAAAAAAAAAAAAAAAAAAAAAAAAAAAAAAAAAAAAAAAAAAAAAAAAAAAAAAAAAAAAAAAAAAAAAAAAAAAAAAAAAAAAAAAAAAAAAAAAAAAAAAAAAAAAAAAAAAAAAAAAAAAAAAAAAAAAAAAAAAAAAAAAAAAAAAAAAAAAAAAAAAAAAAAAAAAAAAAAAAAAAAAAAAAAAAAAAAAAAAAAAAAAAAAAAAAAAAAAAAAAAAAAAAAAAAAAAAAAAAAAAAAAAAAAAAAAAAAAAAAAAAAAAAAAAAAAAAAAAAAAAAAAAAAAAAAAAAAAAAAAAAAAAAAAAAAAAAAAAAAAAAAAAAAAAAAAAAAAAAAAAAAAAAAAAAAAAAAAAAAAAAAAAAAAAAAAAAAAAAAAAAAAAAAAAAAAAAAAAAAAAAAAAAAAAAAAAAAAAAAAAAAAAAAAAAAAAAAAAAAAAAAAAAAAAAAAAAAAAAAAAAAAAAAAAAAAAAAAAAAAAAAAAAAAAAAAAAAAAAAAAAAAAAAAAAAAAAAAAAAAAAAAAAAAAAAAAAAAAAAAAAAAAAAAAAAAAAAAAAAAAAAAAAAAAAAAAAAAAAAAAAAAAAAAAAAAAAAAAAAAAAAAAAAAAAAAAAAAAAAAAAAAAAAAAAAAAAAAAAAAAAAAAAAAAAAAAAAAAAAAAAAAAAAAAAAAAAAAAAAAAAAAAAAAAAAAAAAAAAAAAAAAAAAAAAAAAAAAAAAAAAAAAAAAAAAAAAAAAAAAAAAAAAAAAAAAAAAAAAAAAAAAAAAAAAAAAAAAAAAAAAAAAAAAAAAAAAAAAAAAAAAAAAAAAAAAAAAAAAAAAAAAAAAAAAAAAAAAAAAAAAAAAAAAAAAAAAAAAAAAAAAAAAAAAAAAAAAAAAAAAAAAAAAAAAAAAAAAAAAAAAAAAAAAAAAAAAAAAAAAAAAAAAAAAAAAAAAAAAAAAAAAAAAAAAAAAAAAAAAAAAAAAAAAAAAAAAAAAAAAAAAAAAAAAAAAAAAAAAAAAAAAAAAAAAAAAAAAAAAAAAAAAAAAAAAAAAAAAAAAAAAAAAAAAAAAAAAAAAAAAAAAAAAAAAAAAAAAAAAAAAAAAAAAAAAAAAAAAAAAAAAAAAAAAAAAAAAAAAAAAAAAAAAAAAAAAAAAAAAAAAAAAAAAAAAAAAAAAAAAAAAAAAAAAAAAAAAAAAAAAAAAAAAAAAAAAAAAAAAAAAAAAAAAAAAAAAAAAAAAAAAAAAAAAAAAAAAAAAAAAAAAAAAAAAAAAAAAAAAAAAAAAAAAAAAAAAAAAAAAAAAAAAAAAAAAAAAAAAAAAAAAAAAAAAAAAAAAAAAAAAAAAAAAAAAAAAAAAAAAAAAAAAAAAAAAAAAAAAAAAAAAAAAAAAAAAAAAAAAAAAAAAAAAAAAAAAAAAAAAAAAAAAAAAAAAAAAAAAAAAAAAAAAAAAAAAAAAAAAAAAAAAAAAAAAAAAAAAAAAAAAAAAAAAAAAAAAAAAAAAAAAAAAAAAAAAAAAAAAAAAAAAAAAAAAAAAAAAAAAAAAAAAAAAAAAAAAAAAAAAAAAAAAAAAAAAAAAAAAAAAAAAAAAAAAAAAAAAAAAAAAAAAAAAAAAAAAAAAAAAAAAAAAAAAAAAAAAAAAAAAAAAAAAAAAAAAAAAAAAAAAAAAAAAAAAAAAAAAAAAAAAAAAAAAAAAAAAAAAAAAAAAAAAAAAAAAAAAAAAAAAAAAAAAAAAAAAAAAAAAAAAAAAAAAAAAAAAAAAAAAAAAAAAAAAAAAAAAAAAAAAAAAAAAAAAAAAAAAAAAAAAAAAAAAAAAAAAAAAAAAAAAAAAAAAAAAAAAAAAAAAAAAAAAAAAAAAAAAAAAAAAAAAAAAAAAAAAAAAAAAAAAAAAAAAAAAAAAAAAAAAAAAAAAAAAAAAAAAAAAAAAAAAAAAAAAAAAAAAAAAAAAAAAAAAAAAAAAAAAAAAAAAAAAAAAAAAAAAAAAAAAAAAAAAAAAAAAAAAAAAAAAAAAAAAAAAAAAAAAAAAAAAAAAAAAAAAAAAAAAAAAAAAAAAAAAAAAAAAAAAAAAAAAAAAAAAAAAAAAAAAAAAAAAAAAAAAAAAAAAAAAAAAAAAAAAAAAAAAAAAAAAAAAAAAAAAAAAAAAAAAAAAAAAAAAAAAAAAAAAAAAAAAAAAAAAAAAAAAAAAAAAAAAAAAAAAAAAAAAAAAAAAAAAAAAAAAAAAAAAAAAAAAAAAAAAAAAAAAAAAAAAAAAAAAAAAAAAAAAAAAAAAAAAAAAAAAAAAAAAAAAAAAAAAAAAAAAAAAAAAAAAAAAAAAAAAAAAAAAAAAAAAAAAAAAAAAAAAAAAAAAAAAAAAAAAAAAAAAAAAAAAAAAAAAAAAAAAAAAAAAAAAAAAAAAAAAAAAAAAAAAAAAAAAAAAAAAAAAAAAAAAAAAAAAAAAAAAAAAAAAAAAAAAAAAAAAAAAAAAAAAAAAAAAAAAAAAAAAAAAAAAAAAAAAAAAAAAAAAAAAAAAAAAAAAAAAAAAAAAAAAAAAAAAAAAAAAAAAAAAAAAAAAAAAAAAAAAAAAAAAAAAAAAAAAAAAAAAAAAAAAAAAAAAAAAAAAAAAAAAAAAAAAAAAAAAAAAAAAAAAAAAAAAAAAAAAAAAAAAAAAAAAAAAAAAAAAAAAAAAAAAAAAAAAAAAAAAAAAAAAAAAAAAAAAAAAAAAAAAAAAAAAAAAAAAAAAAAAAAAAAAAAAAAAAAAAAAAAAAAAAAAAAAAAAAAAAAAAAAAAAAAAAAAAAAAAAAAAAAAAAAAAAAAAAAAAAAAAAAAAAAAAAAAAAAAAAAAAAAAAAAAAAAAAAAAAAAAAAAAAAAAAAAAAAAAAAAAAAAAAAAAAAAAAAAAAAAAAAAAAAAAAAAAAAAAAAAAAAAAAAAAAAAAAAAAAAAAAAAAAAAAAAAAAAAAAAAAAAAAAAAAAAAAAAAAAAAAAAAAAAAAAAAAAAAAAAAAAAAAAAAAAAAAAAAAAAAAAAAAAAAAAAAAAAAAAAAAAAAAAAAAAAAAAAAAAAAAAAAAAAAAAAAAAAAAAAAAAAAAAAAAAAAAAAAAAAAAAAAAAAAAAAAAAAAAAAAAAAAAAAAAAAAAAAAAAAAAAAAAAAAAAAAAAAAAAAAAAAAAAAAAAAAAAAAAAAAAAAAAAAAAAAAAAAAAAAAAAAAAAAAAAAAAAAAAAAAAAAAAAAAAAAAAAAAAAAAAAAAAAAAAAAAAAAAAAAAAAAAAAAAAAAAAAAAAAAAAAAAAAAAAAAAAAAAAAAAAAAAAAAAAAAAAAAAAAAAAAAAAAAAAAAAAAAAAAAAAAAAAAAAAAAAAAAAAAAAAAAAAAAAAAAAAAAAAAAAAAAAAAAAAAAAAAAAAAAAAAAAAAAAAAAAAAAAAAAAAAAAAAAAAAAAAAAAAAAAAAAAAAAAAAAAAAAAAAAAAAAAAAAAAAAAAAAAAAAAAAAAAAAAAAAAAAAAAAAAAAAAAAAAAAAAAAAAAAAAAAAAAAAAAAAAAAAAAAAAAAAAAAAAAAAAAAAAAAAAAAAAAAAAAAAAAAAAAAAAAAAAAAAAAAAAAAAAAAAAAAAAAAAAAAAAAAAAAAAAAAAAAAAAAAAAAAAAAAAAAAAAAAAAAAAAAAAAAAAAAAAAAAAAAAAAAAAAAAAAAAAAAAAAAAAAAAAAAAAAAAAAAAAAAAAAAAAAAAAAAAAAAAAAAAAAAAAAAAAAAAAAAAAAAAAAAAAAAAAAAAAAAAAAAAAAAAAAAAAAAAAAAAAAAAAAAAAAAAAAAAAAAAAAAAAAAAAAAAAAAAAAAAAAAAAAAAAAAAAAAAAAAAAAAAAAAAAAAAAAAAAAAAAAAAAAAAAAAAAAAAAAAAAAAAAAAAAAAAAAAAAAAAAAAAAAAAAAAAAAAAAAAAAAAAAAAAAAAAAAAAAAAAAAAAAAAAAAAAAAAAAAAAAAAAAAAAAAAAAAAAAAAAAAAAAAAAAAAAAAAAAAAAAAAAAAAAAAAAAAAAAAAAAAAAAAAAAAAAAAAAAAAAAAAAAAAAAAAAAAAAAAAAAAAAAAAAAAAAAAAAAAAAAAAAAAAAAAAAAAAAAAAAAAAAAAAAAAAAAAAAAAAAAAAAAAAAAAAAAAAAAAAAAAAAAAAAAAAAAAAAAAAAAAAAAAAAAAAAAAAAAAAAAAAAAAAAAAAAAAAAAAAAAAAAAAAAAAAAAAAAAAAAAAAAAAAAAAAAAAAAAAAAAAAAAAAAAAAAAAAAAAAAAAAAAAAAAAAAAAAAAAAAAAAAAAAAAAAAAAAAAAAAAAAAAAAAAAAAAAAAAAAAAAAAAAAAAAAAAAAAAAAAAAAAAAAAAAAAAAAAAAAAAAAAAAAAAAAAAAAAAAAAAAAAAAAAAAAAAAAAAAAAAAAAAAAAAAAAAAAAAAAAAAAAAAAAAAAAAAAAAAAAAAAAAAAAAAAAAAAAAAAAAAAAAAAAAAAAAAAAAAAAAAAAAAAAAAAAAAAAAAAAAAAAAAAAAAAAAAAAAAAAAAAAAAAAAAAAAAAAAAAAAAAAAAAAAAAAAAAAAAAAAAAAAAAAAAAAAAAAAAAAAAAAAAAAAAAAAPZYQLzAoS1vHEPg6yQC3LL78lyJn+0mBQVigGnROzlJjoPra4ly+/1UN15AH7+mMZur9LSoiqTk1/jATQKwKSXxAMI=</c2pa:manifest></metadata>
<defs>
	<linearGradient id="Gradient1" gradientUnits="userSpaceOnUse" x1="1123.08" y1="160.509" x2="1150.22" y2="168.301">
		<stop class="stop0" offset="0" stop-opacity="1" stop-color="rgb(0,0,0)"/>
		<stop class="stop1" offset="1" stop-opacity="1" stop-color="rgb(4,5,44)"/>
	</linearGradient>
	<linearGradient id="Gradient2" gradientUnits="userSpaceOnUse" x1="811.766" y1="624.536" x2="835.319" y2="622.871">
		<stop class="stop0" offset="0" stop-opacity="1" stop-color="rgb(0,0,20)"/>
		<stop class="stop1" offset="1" stop-opacity="1" stop-color="rgb(8,9,67)"/>
	</linearGradient>
	<linearGradient id="Gradient3" gradientUnits="userSpaceOnUse" x1="1099.97" y1="390.288" x2="1135.68" y2="380.621">
		<stop class="stop0" offset="0" stop-opacity="1" stop-color="rgb(2,0,31)"/>
		<stop class="stop1" offset="1" stop-opacity="1" stop-color="rgb(4,2,60)"/>
	</linearGradient>
</defs>
<path transform="translate(0,0)" fill="rgb(255,255,255)" d="M 0 0 L 2048 0 L 2048 2048 L 1427.08 2048 L 1419.6 2048 L 627.839 2048 L 620.51 2048 L 0 2048 L 0 0 z"/>
<path transform="translate(0,0)" fill="rgb(39,2,0)" d="M 932.111 760.234 C 942.127 763.261 953.119 771.395 963.536 775.076 C 1016.45 793.774 1066.98 789.196 1115.13 760.553 L 1115.21 774.54 C 1114.97 792.335 1114.89 810.132 1114.97 827.928 C 1126.38 836.282 1134.8 843.43 1144.31 854.04 C 1154.09 853.666 1161.19 855.85 1170.11 859.64 C 1185.11 854.162 1200.23 848.34 1215.05 842.921 C 1227.52 838.362 1245.06 830.621 1257.76 829.649 C 1283.01 827.715 1310.06 862.053 1296.36 885.644 C 1288.7 898.832 1277.95 909.017 1269.31 920.932 L 1267.4 922.289 C 1244.1 915.853 1225.68 908.204 1200.12 902.061 C 1211.29 923.224 1221.65 943.303 1230.26 965.742 C 1245.13 1004.52 1256.31 1044.05 1263.52 1085.05 C 1264.29 1089.44 1267.87 1118.59 1270.61 1123.67 C 1270.7 1123.84 1273.16 1124.22 1273.27 1124.24 C 1276.05 1131.16 1280.6 1180.92 1281.98 1192.02 L 1305.45 1379.79 C 1308.26 1401.66 1312 1443.4 1316.41 1463.68 C 1334.54 1404.7 1346.14 1319.86 1353.53 1258.5 C 1361.12 1194.45 1367.66 1130.27 1373.15 1066 C 1373.65 1059.66 1373.4 1045.63 1378.7 1042.27 C 1381.69 1043.42 1380.48 1042.49 1382.31 1045.35 C 1382.4 1056.93 1378.45 1092.2 1377.26 1104.9 C 1373.48 1146.82 1369.23 1188.68 1364.52 1230.5 C 1370.46 1216.78 1389.92 1161.93 1397.04 1155.34 L 1398.65 1155.33 C 1402.74 1163.98 1379.37 1239.57 1379.01 1260.27 C 1377.88 1325.38 1405.54 1390.09 1442.58 1442.07 C 1447.02 1431.48 1467.86 1367.44 1471.72 1364.76 C 1475.35 1364.93 1473.96 1364.22 1476.25 1366.43 C 1477.62 1372.47 1476.98 1378.06 1477.45 1384.38 C 1479.19 1407.34 1480.97 1431.52 1481.23 1454.52 C 1495.45 1447.06 1557.89 1418.76 1569.82 1427.65 C 1569.9 1430.45 1570.16 1429.05 1568.09 1431.73 C 1555.22 1435.84 1542.11 1437.4 1529.02 1441.85 C 1498.05 1452.39 1469.52 1468.38 1445.37 1490.58 C 1434.87 1500.23 1431.95 1506.12 1429.99 1519.87 C 1497.89 1520.36 1564.86 1576.34 1584.17 1640.22 C 1586.38 1648.71 1589.58 1661.38 1583.9 1668.89 C 1577.28 1677.63 1565.74 1689.49 1557.92 1697.61 C 1545.3 1710.73 1526.38 1734.78 1512.49 1745.3 C 1505.53 1750.58 1497.48 1754.24 1488.93 1756.03 C 1470.65 1759.92 1448.99 1756.2 1433.01 1746.51 C 1414.39 1763.51 1395.02 1782.82 1376.3 1799.09 C 1388.99 1874.08 1407.81 1949.13 1422.01 2023.89 C 1423.53 2031.9 1425.33 2040.04 1427.08 2048 L 1419.6 2048 L 627.839 2048 L 620.51 2048 C 631.695 1992.12 643.222 1936.3 655.09 1880.56 C 660.936 1852.67 666.022 1825.13 672.56 1797.37 C 653.957 1781.38 634.746 1763.39 616.912 1746.57 C 599.446 1754.56 587.705 1757.67 568.517 1757.07 C 538.452 1756.13 525.258 1735.25 506.388 1715.34 C 494.416 1702.71 482.112 1688.9 470.263 1676.12 C 464.432 1669.82 459.75 1663.13 461.383 1654.36 C 468.826 1587.93 553.067 1514.19 619.778 1519.68 C 619.511 1516.87 618.909 1508.95 617.526 1506.75 C 599.465 1477.97 559.646 1456.39 528.899 1444.68 C 512.947 1438.61 495.863 1435.69 480.392 1431.77 L 480.167 1428.79 L 481.999 1426.96 C 500.052 1422.39 552.594 1446.32 569.879 1454.73 C 571.318 1435.94 571.509 1416.37 572.804 1397.53 C 573.449 1388.15 573.336 1375.19 575.765 1366.35 C 578.959 1364.87 577.318 1365.1 580.876 1365.76 C 584.407 1370.36 604.682 1431.74 608.188 1441.8 C 643.102 1390.71 670.914 1327.6 670.929 1264.94 C 670.106 1237.89 661.291 1210.93 655.943 1184.47 C 654.743 1178.53 648.382 1160.44 650.669 1155.83 C 654.043 1153.92 652.445 1154 655.523 1154.69 C 659.746 1162.46 663.154 1174.09 666.567 1182.59 C 672.672 1197.79 678.517 1212.96 685.313 1227.89 C 680.564 1189.79 677.388 1149.36 673.814 1111 L 669.962 1069.14 C 669.356 1062.79 666.063 1047.27 669.834 1042.95 C 673.286 1042.55 671.872 1042.06 674.426 1043.58 C 676.894 1050.91 678.361 1078.74 679.194 1088.18 L 687.188 1172.54 C 696.958 1269.65 706.689 1360.78 729.811 1455.67 L 731.587 1460.49 L 732.613 1460.22 L 733.208 1456.29 L 763.222 1211.75 C 764.903 1197.95 771.479 1130.88 774.821 1123.7 L 778.78 1122.74 C 778.894 1122.6 790.429 1059.96 791.834 1053.43 C 803.868 997.442 822.298 952.017 849.207 901.854 C 827.279 907.627 804.093 915.043 782.194 921.578 C 772.53 909.896 761.793 900.224 754.095 886.48 C 739.34 860.136 767.352 826.957 795.081 830.068 C 804.486 831.123 820.194 837.676 829.658 841.083 C 846.33 847.138 863.037 853.098 879.778 858.963 C 887.154 856.008 895.497 853.308 903.483 853.052 C 913.569 842.659 919.633 836.838 931.388 828.522 C 931.512 805.759 931.753 782.996 932.111 760.234 z"/>
<path transform="translate(0,0)" fill="rgb(184,116,61)" d="M 679.632 1799.96 C 681.255 1817.68 682.427 1830.45 687.587 1847.63 C 703.151 1899.43 738.792 1944.87 778.445 1980.72 C 787.31 1988.74 796.214 1998.15 805.702 2005.93 C 818.163 2016.16 839.212 2031.11 856.241 2030.39 C 863.89 2030.06 867.457 2025.11 872.049 2019.87 C 883.272 2028.3 901.459 2041.21 916.185 2038.94 C 922.066 2038.02 927.32 2034.74 930.741 2029.87 C 932.111 2027.95 933.731 2024.94 934.679 2022.76 C 967.018 2032.7 982.105 2014.97 968.526 1984.28 C 988.268 1973.84 987.03 1956.39 976.273 1938.95 C 961.201 1914.51 939.657 1891.7 920.814 1869.84 L 922.774 1870.11 C 945.077 1873.35 969.721 1880.67 991.981 1885.11 C 999.104 1886.53 1017.34 1891.5 1023.19 1890.99 C 1034.85 1889.98 1052.18 1884.86 1063.93 1881.99 C 1087.33 1876.29 1105.39 1871.9 1129.18 1869.56 C 1112.32 1888.67 1032.76 1966.51 1081.99 1984.05 C 1067.31 2013.06 1083.51 2034.68 1113.69 2022.87 C 1114.49 2022.56 1115.27 2022.24 1116.06 2021.91 C 1128.77 2060.57 1162.21 2024.53 1178.1 2021.63 C 1184.98 2026.64 1190.73 2032.48 1200.56 2030.36 C 1229.42 2024.15 1252.6 1997.37 1273.5 1977.9 C 1282.39 1969.62 1294.59 1958.1 1302.18 1949.52 C 1312 1938.26 1321.09 1926.38 1329.4 1913.97 C 1355.05 1876.05 1364.13 1849.57 1370.87 1805.44 C 1377.31 1847.95 1386.1 1887.59 1394.84 1929.61 C 1403.09 1969.32 1410.63 2008.42 1419.6 2048 L 627.839 2048 L 662.399 1884.59 C 667.718 1858.82 673.179 1824.5 679.632 1799.96 z"/>
<path transform="translate(0,0)" fill="rgb(184,116,61)" d="M 781.334 1130.97 L 1266.74 1131.11 C 1268.54 1149.53 1271.69 1170.24 1274 1188.8 L 1288.51 1304.5 L 1332.41 1653.52 C 1307.84 1682.46 1290.49 1706.23 1268.27 1736.86 C 1247.21 1737.38 1223.94 1742.76 1204.16 1749.89 C 1203.82 1716.16 1204.14 1682.01 1204.2 1648.25 L 1204.05 1585.19 C 1084.53 1586.81 963.769 1585.28 844.106 1585.46 L 844.578 1749.02 C 820.016 1741.44 805.287 1739.25 780.348 1737.37 C 764.568 1710.91 735.89 1676.56 715.94 1652.82 C 717.014 1632.59 720.81 1612.67 723.344 1592.63 C 728.009 1555.75 733.866 1518.6 738.246 1481.73 L 766.434 1246.02 C 771.171 1207.94 775.45 1168.8 781.334 1130.97 z"/>
<path transform="translate(0,0)" fill="rgb(254,189,179)" d="M 1386.86 1602.77 C 1427.5 1612.64 1469.38 1635.92 1491.47 1672.46 C 1492.22 1673.7 1492.94 1674.95 1493.62 1676.23 C 1462.83 1704.67 1433.54 1735.56 1402.82 1764.11 C 1390.97 1775.11 1375.99 1790.44 1363.24 1800.03 C 1356.12 1871.91 1320.91 1924.17 1269.06 1972.48 C 1255.74 1984.89 1202.38 2041.61 1184.62 2017.56 C 1186.16 2010.99 1267.34 1931.35 1269.19 1922.04 C 1266.75 1919.09 1268.22 1919.71 1265.1 1919.19 C 1257.23 1925.28 1250.08 1935.22 1242.83 1942.43 C 1214.96 1970.1 1192.82 2005.32 1157.78 2024.63 C 1149.22 2029.35 1134.67 2037.14 1126.1 2026.83 C 1123.96 2024.26 1123.01 2021.43 1123.49 2018.03 C 1128.18 2010.86 1148.71 1989.24 1155.4 1981.84 L 1224.05 1905.98 C 1222.23 1902.64 1222.27 1902.89 1218.7 1901.47 C 1196.83 1924.91 1175.21 1948.59 1153.85 1972.49 C 1141.44 1986.2 1129.31 2000.42 1115.36 2012.84 C 1105.72 2021.43 1085.04 2022.65 1083.61 2006.16 C 1082.33 1991.38 1094.57 1979.88 1103.45 1969.78 C 1110.34 1961.96 1117.36 1954.29 1124.34 1946.62 C 1146.51 1922.74 1168.33 1898.54 1189.82 1874.03 C 1187.84 1871.37 1186.97 1871.07 1185.03 1868.86 C 1177.05 1877.7 1088.92 1976.72 1085.42 1976.96 C 1082.51 1977.16 1080.17 1975.87 1078.14 1973.91 C 1074.63 1970.54 1073.6 1966.32 1073.66 1961.57 C 1074.05 1932.91 1138.95 1871.54 1157.5 1846.3 C 1165.33 1835.56 1171.75 1823.86 1176.61 1811.49 C 1178.68 1806.3 1182.12 1798.64 1178.43 1794.04 L 1176.74 1793.75 C 1170.62 1798.67 1167.57 1812.92 1164.28 1820.36 C 1156.55 1837.87 1139.51 1865.7 1117.32 1863.76 C 1114.31 1863.5 1112.4 1862.09 1110.65 1859.71 C 1108.1 1856.26 1106.05 1850.94 1107.05 1846.61 C 1109.52 1835.93 1182.85 1768.18 1195.11 1761.87 C 1217.69 1750.25 1246.9 1744.39 1272.17 1744.96 C 1291.13 1717.01 1311.5 1690.03 1333.2 1664.14 C 1350.67 1643.35 1369.18 1623.41 1386.86 1602.77 z"/>
<path transform="translate(0,0)" fill="rgb(1,0,3)" d="M 1218.7 1901.47 C 1221.26 1898.45 1227.03 1890.28 1231 1889.07 C 1232.68 1888.56 1235.09 1891.3 1234.75 1892.49 C 1233.46 1896.87 1227.13 1902.48 1224.05 1905.98 C 1222.23 1902.64 1222.27 1902.89 1218.7 1901.47 z"/>
<path transform="translate(0,0)" fill="rgb(1,0,3)" d="M 1185.03 1868.86 C 1185.8 1868 1198.46 1850.9 1200.03 1861.51 C 1200.4 1864 1192.26 1871.42 1189.82 1874.03 C 1187.84 1871.37 1186.97 1871.07 1185.03 1868.86 z"/>
<path transform="translate(0,0)" fill="rgb(254,189,179)" d="M 658.52 1603.13 L 661.302 1603.39 C 667.028 1607.88 680.382 1624.18 686.399 1630.82 C 719.002 1666.76 749.684 1702.86 775.832 1743.95 C 837.78 1748.93 859.86 1758.9 901.838 1802.97 C 909.323 1812.49 933.352 1828.65 938.289 1838.59 C 953.036 1868.27 928.159 1864.12 911.819 1858.43 C 899.443 1845.6 888.453 1829.57 881.635 1813.02 C 879.309 1807.37 876.979 1793.75 870.283 1792.95 C 868.336 1797.75 870.544 1804.35 872.1 1809.18 C 881.058 1837.6 901.175 1857.41 919.488 1879.84 C 938.685 1903.6 960.108 1922.48 973.403 1950.46 C 980.942 1966.33 968.429 1982.69 961.203 1975.01 C 936.019 1948.23 911.493 1919.52 886.175 1892.79 C 877.674 1883.81 862.467 1864.28 853.426 1857.94 C 850.198 1858.43 851.547 1857.78 849.167 1859.83 C 848.885 1865.72 869.253 1885.33 874.555 1891.06 L 930.212 1952.01 C 940.83 1963.68 966.956 1987.93 966.549 2004.07 C 966.076 2022.84 944.487 2022.09 932.918 2011.46 C 913.678 1993.78 896.14 1973.07 878.719 1953.39 C 869.829 1943.66 823.493 1891.27 817.128 1889.5 L 814.77 1891.28 C 814.7 1891.92 814.63 1892.56 814.56 1893.2 C 839.672 1923.47 869.176 1953.64 895.246 1983.05 C 905.334 1994.57 918.502 2005.1 926.565 2018.03 C 929.119 2023.96 921.719 2031.13 916.018 2031.32 C 884.285 2032.42 850.633 1990.77 832.029 1970.47 C 821.643 1959.11 811.2 1947.8 800.7 1936.54 C 797.585 1933.17 787.978 1921.77 785.349 1919.89 C 781.661 1920.02 783.449 1919.52 780.079 1922.19 C 780.443 1928.66 853.97 2003.25 863.702 2015.73 C 863.952 2018.03 864.29 2017.18 862.985 2018.87 C 860.994 2021.45 857.986 2023.05 854.732 2023.25 C 839.709 2024.2 813.857 2003.51 803.159 1993.98 C 745.587 1942.67 690.869 1882.03 686.78 1800.63 C 642.636 1762.5 597.287 1717.1 554.837 1676.23 L 555.646 1674.84 C 577.559 1637.92 617.505 1613.4 658.52 1603.13 z"/>
<path transform="translate(0,0)" fill="rgb(184,116,61)" d="M 851.681 1642.68 L 1196.89 1642.81 L 1196.94 1753.02 C 1178.94 1760.57 1137.28 1803.04 1120.71 1818.79 C 1105.86 1833.33 1092.95 1843.51 1105.82 1864.97 C 1083.57 1869.27 1043.88 1881.1 1023.71 1883.3 C 1016.29 1884.11 950.76 1868.42 941.27 1866.37 C 943.975 1863.74 946.602 1861.06 948.325 1857.65 C 950.716 1852.92 950.364 1847.18 948.65 1842.28 C 943.862 1828.61 879.907 1771.65 865.54 1760.87 C 861.254 1757.65 856.749 1755.24 851.94 1752.9 C 852.285 1716.43 851.793 1679.21 851.681 1642.68 z"/>
<path transform="translate(0,0)" fill="rgb(255,255,255)" d="M 1022.59 955.918 C 1037.98 968.927 1054.43 985.023 1068.97 999.037 C 1089.87 1019.18 1110.32 1038.19 1127.43 1061.7 C 1154.69 1039.02 1170.14 991.598 1177.18 958.032 C 1202.64 1014.47 1215.21 1061.76 1221.67 1123.14 C 1158.28 1123.64 1094.89 1123.82 1031.5 1123.67 L 826.766 1123.01 C 831.895 1077.3 840.401 1037.17 857.407 994.124 C 861.446 983.901 865.653 972.257 870.952 962.689 C 876.634 998.64 893.057 1035.68 918.918 1061.71 C 922.326 1058.13 925.348 1053.35 928.799 1049.54 C 958.451 1016.78 990.753 986.53 1022.59 955.918 z"/>
<path transform="translate(0,0)" fill="rgb(255,255,255)" d="M 605.594 1527.36 C 614.258 1526.47 618.134 1527.43 626.254 1529.57 C 643.542 1549.67 668.495 1572.07 683.088 1593.02 C 648.049 1595.8 625.459 1601.61 595.715 1622.35 C 564.626 1644.02 538.01 1677.6 531.264 1715.62 L 529.83 1729.71 C 518.186 1716.75 506.406 1703.92 494.494 1691.22 C 486.351 1682.46 474.032 1670.06 467.918 1660.48 C 473.109 1596.62 543.852 1535.04 605.594 1527.36 z"/>
<path transform="translate(0,0)" fill="rgb(255,255,255)" d="M 1427.54 1528.2 C 1490.41 1524.32 1554.67 1579.58 1575.17 1636.84 C 1585.48 1665.66 1574.55 1668.58 1555.4 1689.37 C 1543.09 1702.67 1530.88 1716.06 1518.77 1729.54 C 1517.29 1725.46 1516.79 1715.41 1515.74 1710.34 C 1503.89 1653.27 1446.62 1607.58 1391.27 1596.12 C 1383.43 1594.49 1374.5 1593.69 1366.29 1592.88 C 1372.64 1583.4 1419.48 1530.4 1427.54 1528.2 z"/>
<path transform="translate(0,0)" fill="rgb(255,255,255)" d="M 1350 1344.78 C 1381.98 1389.71 1413.63 1435.32 1447.22 1479.06 C 1430.47 1496.91 1426.53 1492.95 1422.69 1520.2 C 1409.16 1532.03 1368.25 1574.96 1358.61 1589.49 C 1357.44 1591.57 1356.4 1593.73 1355.49 1595.95 C 1351.91 1604.87 1353.74 1615.01 1357.48 1623.55 C 1351.88 1630.75 1345.11 1638.45 1339.19 1645.48 C 1333.95 1615.23 1331.89 1582.04 1326.99 1551.48 C 1325.68 1543.28 1318.02 1487.42 1319.41 1482.63 C 1332.75 1436.48 1341.38 1391.97 1350 1344.78 z"/>
<path transform="translate(0,0)" fill="rgb(255,255,255)" d="M 699.8 1344.92 C 701.209 1346.63 707.138 1391.86 708.945 1398.7 C 712.838 1413.44 716.06 1432.75 720.529 1448.36 C 723.484 1458.69 727.945 1472.84 729.516 1483.78 C 728.892 1497.79 725.743 1518.25 723.869 1532.61 C 718.745 1570.1 714.016 1607.64 709.683 1645.23 C 703.84 1638.47 698.037 1632.67 692.184 1625.56 C 692.785 1623.87 693.345 1622.16 693.864 1620.44 C 696.815 1610.53 696.762 1601.06 691.85 1591.88 C 684.943 1580.59 638.933 1530.19 628.015 1522.65 C 624.789 1496.59 620.6 1497.83 603.99 1479.15 C 633.477 1433.89 668.487 1389.14 699.8 1344.92 z"/>
<path transform="translate(0,0)" fill="rgb(254,189,179)" d="M 1107.92 789.752 L 1107.98 803.629 C 1108.06 820.548 1110.35 857.436 1102.7 871.096 C 1093.38 898.12 1047.47 931.203 1023.03 946.685 C 1017.7 943.082 1007.56 936.365 1002.69 932.363 C 977.627 914.128 956.061 899.23 943.086 869.994 C 937.269 851.121 939.184 822.834 939.368 802.383 C 991.345 853.324 1057.8 829.852 1107.92 789.752 z"/>
<path transform="translate(0,0)" fill="rgb(254,156,146)" d="M 1107.92 789.752 L 1107.98 803.629 C 1102.69 804.837 1092.63 815.386 1089.08 819.4 C 1057.7 854.896 1013.74 868.369 967.471 869.527 C 960.118 869.711 950.431 869.425 943.086 869.994 C 937.269 851.121 939.184 822.834 939.368 802.383 C 991.345 853.324 1057.8 829.852 1107.92 789.752 z"/>
<path transform="translate(0,0)" fill="rgb(254,156,146)" d="M 1002.69 932.363 C 1041 926.746 1061.75 916.316 1088.19 887.122 C 1092.21 882.689 1098.13 874.101 1102.7 871.096 C 1093.38 898.12 1047.47 931.203 1023.03 946.685 C 1017.7 943.082 1007.56 936.365 1002.69 932.363 z"/>
<path transform="translate(0,0)" fill="rgb(255,255,255)" d="M 928.702 839.876 L 929.565 840.827 C 929.847 844.518 930.254 848.199 930.785 851.863 C 938.308 900.442 979.206 924.679 1016.56 952.117 C 991.166 973.726 963.573 1002.36 940.085 1026.27 C 933.034 1033.29 925.119 1042.7 918.418 1050.26 C 916.912 1048.45 915.429 1046.62 913.971 1044.78 C 863.628 980.889 861.023 892.542 928.702 839.876 z"/>
<path transform="translate(0,0)" fill="rgb(255,255,255)" d="M 1117.15 839.435 C 1144.64 856.829 1168.08 900.362 1169.55 932.712 C 1171.42 974.052 1155.39 1019.02 1128.18 1049.92 C 1121.67 1041.69 1114.4 1033.82 1107.39 1025.99 C 1082.05 1000.49 1056.19 975.519 1029.82 951.088 C 1057.96 931.655 1091.03 910.117 1107.91 879.543 C 1114.76 867.136 1116.27 853.334 1117.15 839.435 z"/>
<path transform="translate(0,0)" fill="rgb(184,116,61)" d="M 851.615 1593.19 L 1196.88 1593.05 C 1196.94 1599.7 1197.72 1630.21 1195.97 1634.5 L 851.551 1634.66 L 851.615 1593.19 z"/>
<path transform="translate(0,0)" fill="rgb(184,116,61)" d="M 1151.28 862.196 C 1155.36 862.104 1160.31 862.825 1163.19 865.737 C 1223.33 926.539 1250.32 1046.54 1262.31 1123.18 L 1228.56 1123.32 C 1225.75 1075.75 1213.27 1027.12 1195.43 983.132 C 1191.85 974.283 1181.32 953.523 1179.4 946.636 C 1175.35 932.039 1177.34 918.996 1171.78 901.574 C 1168.05 889.881 1152.33 867.203 1151.28 862.196 z"/>
<path transform="translate(0,0)" fill="rgb(184,116,61)" d="M 894.966 862.275 C 895.149 862.581 895.331 862.887 895.514 863.193 C 880.541 884.472 869.812 909.946 869.819 936.275 C 869.363 940.04 869.291 947.575 867.711 950.847 C 840.412 1007.38 826.683 1060.31 818.683 1122.98 L 789.084 1122.9 C 785.863 1120.67 790.257 1099.72 791.042 1095.12 C 801.186 1035.68 819.23 976.227 846.134 922.177 C 855.66 903.038 870.699 883.275 883.223 865.966 L 894.966 862.275 z"/>
<path transform="translate(0,0)" fill="rgb(184,116,61)" d="M 1173.63 865.89 L 1175.11 865.479 C 1194.15 860.083 1240.56 838.687 1255.93 837.616 C 1261.89 837.212 1267.83 838.553 1273.03 841.477 C 1289.81 850.751 1295.91 866.319 1289.22 884.084 L 1287.69 883.4 C 1279.56 876.032 1271.58 868.397 1261.69 863.513 C 1238.79 866.362 1211.53 880.432 1188.57 886.758 C 1183.72 879.825 1178.8 872.544 1173.63 865.89 z"/>
<path transform="translate(0,0)" fill="rgb(184,116,61)" d="M 787.583 837.072 C 799.997 836.4 856.763 859.517 874.833 864.931 L 859.071 886.184 C 851.42 883.493 843.785 880.756 836.167 877.972 C 819.476 871.983 805.112 866.221 787.659 862.863 C 782.648 865.885 763.068 881.931 759.807 881.191 C 756.162 874.929 757.881 864.845 760.928 858.626 C 766.776 846.686 775.824 841.434 787.583 837.072 z"/>
<path transform="translate(0,0)" fill="rgb(100,53,18)" d="M 782.009 875.708 C 788.366 878.879 804.513 898.544 810.417 905.035 C 806.453 906.301 796.737 909.593 793.235 911.144 C 790.286 912.082 787.363 913.097 784.467 914.189 C 777.412 906.426 770.982 898.217 764.952 889.641 C 771.867 882.216 773.458 881.266 782.009 875.708 z"/>
<path transform="translate(0,0)" fill="rgb(100,53,18)" d="M 1267.15 875.355 C 1272.74 879.197 1279.64 886.362 1284.13 886.909 L 1286.37 888.128 C 1278.63 896.214 1271.98 905.356 1264.88 913.981 C 1256.23 910.857 1247.33 907.815 1238.63 904.77 C 1248.34 896.61 1258.28 884.818 1267.15 875.355 z"/>
<path transform="translate(0,0)" fill="rgb(255,255,255)" d="M 1257.12 871.094 C 1257.71 871.192 1258.44 871.108 1258.75 871.694 C 1258.29 874.419 1235 899.526 1231.71 902.826 L 1230.55 902.496 C 1222.51 900.286 1214.03 898.083 1206.07 895.734 C 1205.58 895.6 1205.08 895.467 1204.59 895.333 L 1199.5 894.027 L 1195.1 892.911 C 1206.55 887.773 1244.66 874.442 1257.12 871.094 z"/>
<path transform="translate(0,0)" fill="rgb(255,255,255)" d="M 791.303 871.705 C 796.978 872.629 849.984 889.457 851.553 891.591 C 851.738 893.506 847.804 894.097 846.566 894.45 C 837.261 897.117 827.858 899.462 818.447 901.694 L 817.579 901.907 C 809.521 892.109 798.721 881.509 791.303 871.705 z"/>
<path transform="translate(0,0)" fill="rgb(84,33,15)" d="M 1287.69 883.4 L 1289.22 884.084 L 1286.37 888.128 L 1284.13 886.909 C 1285.3 885.721 1286.49 884.551 1287.69 883.4 z"/>
<path transform="translate(0,0)" fill="rgb(254,189,179)" d="M 1049.79 338.112 C 1057.64 333.462 1071.78 301.985 1075.72 292.694 L 1079.21 313.707 C 1082.34 316.475 1082.95 317.349 1086.74 318.771 L 1087.58 317.204 C 1087.25 313.37 1086.38 310.3 1085.49 306.567 L 1087.55 304.149 C 1112.47 374.355 1159.22 451.48 1224.04 490.973 C 1227.05 513.375 1228.17 534.159 1226.83 556.656 C 1226.59 560.714 1225.98 566.777 1226.21 570.639 C 1229.37 571.69 1229.3 575.093 1230.63 578.82 C 1229.48 584.364 1229.01 589.325 1227.99 594.816 C 1227.69 597.131 1227.47 598.877 1227.3 601.223 C 1219.98 628.524 1212.75 643.82 1201.94 668.959 C 1200.57 672.607 1197.9 676.458 1195.84 679.846 C 1177.89 711.513 1149.43 744.737 1116.09 760.497 C 1116.01 764.999 1116.16 770.219 1115.21 774.54 L 1115.13 760.553 C 1066.98 789.196 1016.45 793.774 963.536 775.076 C 953.119 771.395 942.127 763.261 932.111 760.234 C 899.351 735.313 876.12 719.126 855.583 680.573 C 855.479 677.537 850.01 666.378 848.392 663.582 L 846.718 664.218 C 839.821 649.981 834.216 635.153 829.969 619.915 C 828.884 616.19 827.952 612.432 826.864 608.727 C 825.313 599.216 821.703 588.533 820.888 579.115 C 820.709 575.461 820.536 574.167 819.804 570.522 C 820.499 564.683 821.945 549.52 823.722 544.308 C 824.578 523.291 825.092 511.251 828.688 490.573 L 829.004 488.68 C 831.484 485.38 887.848 455.962 896.073 451.497 C 935.966 429.98 1026.12 375.642 1049.79 338.112 z"/>
<path transform="translate(0,0)" fill="url(#Gradient3)" d="M 1079.21 313.707 C 1082.34 316.475 1082.95 317.349 1086.74 318.771 L 1087.58 317.204 C 1101.83 378.143 1115.98 412.358 1162.69 456.69 C 1154.96 456.079 1161.83 452.44 1154.56 457.021 C 1152.31 455.818 1148.72 453.903 1147.54 451.618 C 1144.95 448.1 1141.01 443.905 1138.04 440.637 C 1105.49 404.866 1087.55 361.089 1079.21 313.707 z"/>
<path transform="translate(0,0)" fill="rgb(1,1,55)" d="M 1160.93 463.189 C 1160.64 463.63 1160.34 464.066 1160.06 464.511 C 1158.72 466.6 1157.08 469.28 1154.51 469.983 C 1151.05 470.928 1144.95 465.288 1142 463.776 C 1131.97 458.649 1119.45 457.284 1108.94 461.69 C 1105.08 463.31 1101.5 465.965 1097.5 467.157 C 1095.75 467.678 1094.2 467.814 1092.61 466.836 C 1090.99 465.841 1089.43 463.916 1089.07 462.021 C 1088.75 460.361 1089.32 458.584 1090.31 457.245 C 1095.03 450.795 1106.86 447.132 1114.5 446.051 C 1115.49 445.912 1116.48 445.794 1117.46 445.631 C 1127.99 443.89 1138.25 446.671 1147.54 451.618 C 1148.72 453.903 1152.31 455.818 1154.56 457.021 C 1156.25 459.537 1158.54 461.396 1160.93 463.189 z"/>
<path transform="translate(0,0)" fill="rgb(1,0,3)" d="M 819.804 570.522 C 820.499 564.683 821.945 549.52 823.722 544.308 C 825.571 587.701 830.443 623.011 848.392 663.582 L 846.718 664.218 C 839.821 649.981 834.216 635.153 829.969 619.915 C 828.884 616.19 827.952 612.432 826.864 608.727 C 825.313 599.216 821.703 588.533 820.888 579.115 C 820.709 575.461 820.536 574.167 819.804 570.522 z"/>
<path transform="translate(0,0)" fill="rgb(1,0,3)" d="M 1226.21 570.639 C 1229.37 571.69 1229.3 575.093 1230.63 578.82 C 1229.48 584.364 1229.01 589.325 1227.99 594.816 C 1227.69 597.131 1227.47 598.877 1227.3 601.223 C 1219.98 628.524 1212.75 643.82 1201.94 668.959 L 1200.9 668.349 C 1216.44 639.663 1221.67 602.404 1226.21 570.639 z"/>
<path transform="translate(0,0)" fill="rgb(1,1,55)" d="M 1154.56 457.021 C 1161.83 452.44 1154.96 456.079 1162.69 456.69 C 1164.24 457.673 1178.18 469.678 1179.3 470.973 L 1178.3 475.431 C 1174.77 472.737 1164.28 464.47 1160.93 463.189 C 1158.54 461.396 1156.25 459.537 1154.56 457.021 z"/>
<path transform="translate(0,0)" fill="rgb(1,0,3)" d="M 1179.3 470.973 C 1186.23 475.943 1192.27 481.062 1198.1 487.227 C 1188.69 482.788 1186.84 481.424 1178.3 475.431 L 1179.3 470.973 z"/>
<path transform="translate(0,0)" fill="rgb(183,140,144)" d="M 1200.9 668.349 L 1201.94 668.959 C 1200.57 672.607 1197.9 676.458 1195.84 679.846 C 1196.75 675.388 1198.27 672.141 1200.9 668.349 z"/>
<path transform="translate(0,0)" fill="rgb(1,0,3)" d="M 928.814 628.159 C 938.137 627.832 948.394 627.842 957.741 628.092 C 1012.55 629.556 1069.21 625.976 1123.8 628.132 C 1122.88 658.702 1112.7 681.657 1092.39 704.346 C 1079.52 716.953 1066.12 725.644 1048.5 730.169 C 1024.38 736.354 998.777 732.66 977.382 719.906 C 954.684 706.271 936.398 681.182 930.302 655.456 C 928.444 647.613 924.696 634.961 928.814 628.159 z"/>
<path transform="translate(0,0)" fill="rgb(255,255,255)" d="M 937.419 633.946 C 993.474 636.117 1056.36 634.869 1113.05 634.962 C 1108.17 638.499 1104.04 640.912 1098.85 643.977 C 1057.29 664.474 973.251 666.87 937.419 633.946 z"/>
<path transform="translate(0,0)" fill="rgb(236,44,46)" d="M 995.677 694.163 C 1007.34 693.354 1013.28 693.488 1024 699.169 C 1045.78 690.003 1061.98 692.764 1080.51 706.562 C 1071.2 714.203 1065.36 716.942 1054.24 721.296 C 1024.18 731.847 994.874 727.601 970.454 706.733 C 980.249 700.089 984.459 697.841 995.677 694.163 z"/>
<path transform="translate(0,0)" fill="rgb(254,156,146)" d="M 1146.91 547.213 C 1208.18 542.727 1221.45 593.135 1165.36 603.937 C 1157.57 604.123 1152.84 604.122 1144.49 603.176 C 1126.63 601.153 1102.06 584.613 1114.36 564.305 C 1120.04 554.932 1135.98 549.276 1146.91 547.213 z"/>
<path transform="translate(0,0)" fill="rgb(254,156,146)" d="M 887.616 548.297 C 901.672 546.421 913.012 548.279 926.01 554.973 C 937.007 560.636 947.169 573.595 939.121 585.991 C 931.964 597.016 919.715 600.776 907.101 603.45 C 892.639 605.226 877.803 604.492 865.313 596.424 C 854.85 589.665 846.077 575.648 854.515 564.092 C 862.23 553.525 875.467 550.169 887.616 548.297 z"/>
<path transform="translate(0,0)" fill="rgb(1,0,3)" d="M 902.611 503.07 C 906.633 504.983 908.44 506.375 912.023 508.705 C 932.729 501.779 946.919 504.185 957.009 525.004 C 968.849 549.432 941.247 578.814 929.988 546.046 C 928.67 535.87 931.114 525.994 939.995 519.802 C 939.872 519.888 943.123 518.162 941.84 517.628 C 932.263 513.641 920.208 519.329 912.478 524.996 C 910.043 526.192 907.058 532.043 905.051 532.711 C 902.963 532.706 902.654 526.793 903.167 526.041 C 906.519 521.133 894.667 518.333 896.516 513.173 C 899.603 512.535 904.143 518.203 907.262 515.383 C 912.685 510.479 901.472 510.643 902.46 504.321 L 902.611 503.07 z"/>
<path transform="translate(0,0)" fill="rgb(1,0,3)" d="M 1115.45 505.112 C 1127.26 504.22 1128.37 504.607 1138.82 509.243 C 1141.33 507.751 1145.34 504.362 1148.37 505.801 C 1150.09 508.6 1143.82 510.599 1143 512.621 C 1140.92 517.785 1148.36 516.072 1150.76 514.707 C 1154.15 512.787 1153.95 513.08 1154.8 515.866 C 1151.59 520.067 1146.44 519.651 1146.71 524.476 C 1146.79 525.975 1147.76 530.608 1145.52 530.989 C 1146.04 531.17 1135.83 522.34 1135.55 521.914 C 1132.38 517.047 1109.73 513.63 1108.75 518.903 C 1113.23 521.99 1113.49 522.154 1117.27 525.809 C 1120.63 536.915 1122.82 552.296 1110.01 558.849 C 1101.38 562.957 1094.33 555.698 1092.13 547.99 C 1086.62 528.667 1097.07 511.322 1115.45 505.112 z"/>
<path transform="translate(0,0)" fill="rgb(1,1,55)" d="M 926.067 445.339 C 931.415 445.32 936.752 445.8 942.01 446.773 C 950.927 448.347 974.016 457.316 960.376 467.884 C 958.535 469.311 953.263 465.998 951.466 465.108 C 945.63 462.216 939.973 461.248 933.761 459.815 C 916.913 458.837 916.264 461.632 902.626 469.455 C 898.375 471.894 891.292 465.413 897.758 458.382 C 906.632 448.733 913.718 447.191 926.067 445.339 z"/>
<path transform="translate(0,0)" fill="rgb(1,0,3)" d="M 1023.3 568.178 C 1050.3 568.684 1047.86 595.557 1038.34 584.426 C 1036.36 582.119 1039.61 578.342 1028.93 573.954 C 1023.16 574.426 1016.63 575.187 1015.3 582.048 C 1015.23 587.488 1010.23 590.49 1008.73 584.006 C 1006.6 574.82 1017.18 569.759 1023.3 568.178 z"/>
<path transform="translate(0,0)" fill="rgb(1,1,55)" d="M 935.848 204.305 C 912.769 158.22 931.344 109.726 977.616 88.1597 C 1025.65 65.7716 1096.92 83.1123 1119.54 133.893 C 1130.28 158.006 1132.33 184.408 1115.62 206.452 C 1107.94 203.998 1093.76 199.411 1085.77 201.912 L 1085.55 203.067 C 1091.82 207.311 1105.92 208.854 1113.76 211.707 C 1123.94 215.415 1133.72 219.649 1143.66 223.717 C 1206.47 249.422 1251.74 316.573 1263.77 382.024 C 1269.65 414.019 1272.79 460.429 1268.21 492.903 C 1258.65 493.412 1236.76 493.838 1235.6 506.372 C 1249.55 500.716 1259.55 497.506 1274.51 503.747 C 1287.68 509.239 1296.68 520.436 1301.76 533.498 C 1306.88 545.68 1305.28 556.586 1307.95 567.249 C 1303.34 606.292 1276.26 634.408 1235.67 632.215 C 1231.09 667.949 1221.69 706.213 1208.33 739.548 C 1206.56 743.98 1203.11 755.107 1199.61 757.889 C 1197.56 754.746 1204.49 737.26 1206.13 731.767 C 1218.69 690.615 1226.5 648.163 1229.42 605.236 L 1227.3 601.223 C 1227.47 598.877 1227.69 597.131 1227.99 594.816 C 1229.01 589.325 1229.48 584.364 1230.63 578.82 C 1229.3 575.093 1229.37 571.69 1226.21 570.639 C 1225.98 566.777 1226.59 560.714 1226.83 556.656 C 1228.17 534.159 1227.05 513.375 1224.04 490.973 C 1159.22 451.48 1112.47 374.355 1087.55 304.149 L 1085.49 306.567 C 1086.38 310.3 1087.25 313.37 1087.58 317.204 L 1086.74 318.771 C 1082.95 317.349 1082.34 316.475 1079.21 313.707 L 1075.72 292.694 C 1071.78 301.985 1057.64 333.462 1049.79 338.112 C 1026.12 375.642 935.966 429.98 896.073 451.497 C 887.848 455.962 831.484 485.38 829.004 488.68 L 828.688 490.573 C 824.652 489.821 826.38 489.394 823.244 491.497 C 820.675 495.724 820.149 498.788 818.863 503.531 C 804.707 494.123 796.076 493.846 779.664 494.801 C 778.36 478.168 776.069 454.766 777.35 438.66 C 781.767 383.107 800.4 318.082 836.957 275.38 C 859.054 249.568 898.757 223.73 931.007 213.169 C 935.771 211.609 953.832 206.879 955.063 203.135 C 948.151 200.939 942.869 202.75 935.848 204.305 z"/>
<path transform="translate(0,0)" fill="rgb(254,189,179)" d="M 1235.6 506.372 C 1249.55 500.716 1259.55 497.506 1274.51 503.747 C 1287.68 509.239 1296.68 520.436 1301.76 533.498 C 1306.88 545.68 1305.28 556.586 1307.95 567.249 C 1303.34 606.292 1276.26 634.408 1235.67 632.215 C 1236.38 626.911 1237.41 609.809 1239.51 607.74 L 1239.35 605.907 C 1238.36 600.812 1238.59 598.324 1239.44 593.121 C 1237.98 590.715 1237.97 588.911 1237.52 586.137 C 1238.51 585.666 1239.43 585.278 1240.44 584.847 C 1241 581.988 1241.87 577.604 1242.78 574.877 C 1241.49 572.491 1240.91 571.041 1239.9 568.516 C 1239.64 567.027 1239.58 566.392 1239.47 564.857 C 1237.91 543.488 1238.29 529.342 1235.6 506.372 z"/>
<path transform="translate(0,0)" fill="rgb(1,0,3)" d="M 1239.47 564.857 C 1249.65 550.118 1258.86 538.172 1277.99 535.214 C 1279.54 534.975 1282.46 534.542 1283.91 535.553 C 1284.86 536.215 1285.45 537.855 1285.56 538.971 C 1285.65 539.855 1285.38 540.816 1284.79 541.494 C 1281.62 545.115 1255.41 539.124 1242.78 574.877 C 1241.49 572.491 1240.91 571.041 1239.9 568.516 C 1239.64 567.027 1239.58 566.392 1239.47 564.857 z"/>
<path transform="translate(0,0)" fill="rgb(1,0,3)" d="M 1240.44 584.847 L 1241.15 585.618 C 1246.73 591.581 1255.75 599.588 1247.17 607.573 C 1244.64 609.923 1242.22 609.136 1239.51 607.74 L 1239.35 605.907 C 1238.36 600.812 1238.59 598.324 1239.44 593.121 C 1237.98 590.715 1237.97 588.911 1237.52 586.137 C 1238.51 585.666 1239.43 585.278 1240.44 584.847 z"/>
<path transform="translate(0,0)" fill="rgb(252,204,195)" d="M 1239.44 593.121 C 1245.53 599.72 1243.86 598.269 1239.35 605.907 C 1238.36 600.812 1238.59 598.324 1239.44 593.121 z"/>
<path transform="translate(0,0)" fill="rgb(1,0,3)" d="M 829.004 488.68 L 825.347 487.723 L 824.533 486.068 C 826.642 480.094 847.057 469.919 853.765 465.827 C 930.017 419.308 999.841 363.488 1056.24 293.829 C 1063.63 284.698 1071.85 270.367 1078.4 260.036 L 1079.02 261.419 C 1085.44 276.135 1090.18 296.623 1096.14 312.355 C 1114.61 361.848 1142.39 407.345 1177.97 446.388 C 1186.21 455.48 1195.41 462.434 1204.73 470.179 C 1211.35 475.674 1223.79 482.019 1224.04 490.973 C 1159.22 451.48 1112.47 374.355 1087.55 304.149 L 1085.49 306.567 C 1086.38 310.3 1087.25 313.37 1087.58 317.204 L 1086.74 318.771 C 1082.95 317.349 1082.34 316.475 1079.21 313.707 L 1075.72 292.694 C 1071.78 301.985 1057.64 333.462 1049.79 338.112 C 1026.12 375.642 935.966 429.98 896.073 451.497 C 887.848 455.962 831.484 485.38 829.004 488.68 z"/>
<path transform="translate(0,0)" fill="rgb(254,189,179)" d="M 931.013 420.876 C 986.443 379.631 1032.33 337.233 1072.25 281.025 C 1067.86 296.687 1063.97 306.59 1054.49 320.284 C 1052.16 323.656 1045.88 331.881 1044.31 334.77 L 1043.7 335.919 C 1002.68 379.525 982.709 391.174 932.283 422.608 L 931.013 420.876 z"/>
<path transform="translate(0,0)" fill="rgb(1,1,55)" d="M 932.283 422.608 C 982.709 391.174 1002.68 379.525 1043.7 335.919 C 1036.71 361.861 943.372 417.638 920.474 432.829 C 911.874 438.535 912.256 434.629 902.717 445.946 L 903.452 445.004 L 902.798 446.136 C 915.554 437.66 928.294 430.793 941.371 422.887 C 971.03 404.955 999.445 385.705 1025.33 362.548 C 1034.03 354.762 1039.69 343.904 1049.79 338.112 C 1026.12 375.642 935.966 429.98 896.073 451.497 L 895.324 448.901 C 896.308 446.261 914.035 432.728 917.047 431.349 C 919.621 429.015 920.9 428.128 923.792 426.158 C 926.17 424.359 928.578 422.598 931.013 420.876 L 932.283 422.608 z"/>
<path transform="translate(0,0)" fill="rgb(183,140,144)" d="M 931.013 420.876 L 932.283 422.608 C 930.199 424.348 927.64 425.864 925.28 427.215 L 923.792 426.158 C 926.17 424.359 928.578 422.598 931.013 420.876 z"/>
<path transform="translate(0,0)" fill="rgb(128,96,119)" d="M 923.792 426.158 L 925.28 427.215 C 921.403 429.874 921.4 429.888 917.047 431.349 C 919.621 429.015 920.9 428.128 923.792 426.158 z"/>
<path transform="translate(0,0)" fill="rgb(132,94,92)" d="M 1085.49 306.567 C 1084.49 301.756 1083.33 297.372 1083.5 292.456 C 1084.98 296.418 1086.6 300.018 1087.55 304.149 L 1085.49 306.567 z"/>
<path transform="translate(0,0)" fill="rgb(1,0,25)" d="M 1239.9 568.516 C 1240.91 571.041 1241.49 572.491 1242.78 574.877 C 1241.87 577.604 1241 581.988 1240.44 584.847 C 1239.43 585.278 1238.51 585.666 1237.52 586.137 C 1238.76 580.983 1239.44 573.847 1239.9 568.516 z"/>
<path transform="translate(0,0)" fill="rgb(128,96,119)" d="M 1230.63 578.82 C 1231.01 582.673 1231.59 590.523 1230.29 594.117 L 1227.99 594.816 C 1229.01 589.325 1229.48 584.364 1230.63 578.82 z"/>
<path transform="translate(0,0)" fill="rgb(252,204,195)" d="M 1227.99 594.816 L 1230.29 594.117 C 1230.06 597.942 1229.88 601.413 1229.42 605.236 L 1227.3 601.223 C 1227.47 598.877 1227.69 597.131 1227.99 594.816 z"/>
<path transform="translate(0,0)" fill="rgb(1,0,3)" d="M 1005.07 72.9984 C 1004.76 72.1019 1004.86 72.6748 1005.18 71.2564 C 1008.64 70.6945 1011.01 70.7251 1014.48 70.664 C 1011.7 69.1375 1010.78 69.2465 1007.62 68.583 L 1009.76 67.3223 C 1015.88 69.1396 1018.44 69.9105 1024.27 72.6628 C 1040.64 69.9449 1052.26 67.7672 1069 70.2804 C 1096.76 74.448 1124.6 91.1412 1139.07 115.915 C 1137.38 117.604 1135.86 119.102 1134.27 120.894 L 1136.09 124.453 C 1150.73 153.056 1146.96 184.432 1128.09 210.001 C 1130.85 210.612 1130.66 210.74 1132.92 212.804 C 1144.5 218.509 1155.38 222.723 1166.6 229.514 C 1257.82 284.7 1285.81 394.538 1272.71 495.075 C 1300.99 508.402 1314.99 536.773 1307.95 567.249 C 1305.28 556.586 1306.88 545.68 1301.76 533.498 C 1296.68 520.436 1287.68 509.239 1274.51 503.747 C 1259.55 497.506 1249.55 500.716 1235.6 506.372 C 1236.76 493.838 1258.65 493.412 1268.21 492.903 C 1272.79 460.429 1269.65 414.019 1263.77 382.024 C 1251.74 316.573 1206.47 249.422 1143.66 223.717 C 1133.72 219.649 1123.94 215.415 1113.76 211.707 C 1105.92 208.854 1091.82 207.311 1085.55 203.067 L 1085.77 201.912 C 1093.76 199.411 1107.94 203.998 1115.62 206.452 C 1132.33 184.408 1130.28 158.006 1119.54 133.893 C 1096.92 83.1123 1025.65 65.7716 977.616 88.1597 C 931.344 109.726 912.769 158.22 935.848 204.305 C 942.869 202.75 948.151 200.939 955.063 203.135 C 953.832 206.879 935.771 211.609 931.007 213.169 C 898.757 223.73 859.054 249.568 836.957 275.38 C 800.4 318.082 781.767 383.107 777.35 438.66 C 776.069 454.766 778.36 478.168 779.664 494.801 C 796.076 493.846 804.707 494.123 818.863 503.531 C 818.143 505.621 817.699 507.234 816.668 509.196 C 783.88 487.829 755.101 507.235 744.623 540.978 C 742.724 547.094 742.951 562.552 740.291 566.171 C 737.17 537.291 744.784 508.926 774.17 496.842 C 773.66 482.627 772.224 468.876 772.17 454.528 C 772.157 414.477 779.635 374.778 794.217 337.476 C 820.614 271.453 864.175 235.433 927.527 208.169 L 919.552 198.493 C 924.067 195.739 923.708 197.745 924.204 194.335 L 923.859 193.077 C 907.107 130.12 947.224 88.9805 1005.49 74.3781 L 1005.07 72.9984 z"/>
<path transform="translate(0,0)" fill="rgb(255,255,255)" d="M 1059.77 75.5661 C 1062.7 76.1066 1065.95 76.7775 1068.87 77.1805 C 1098.43 84.0981 1117.05 94.7096 1134.27 120.894 L 1136.09 124.453 C 1150.73 153.056 1146.96 184.432 1128.09 210.001 L 1124.47 209.099 C 1124.08 208.517 1123.69 207.935 1123.3 207.354 C 1132.92 183.323 1136.45 160.336 1125.86 135.986 C 1113.26 107.006 1093.1 91.5794 1064.59 79.7041 L 1053.93 76.7762 C 1055.88 76.3868 1057.83 75.9834 1059.77 75.5661 z"/>
<path transform="translate(0,0)" fill="rgb(101,96,99)" d="M 1053.93 76.7762 C 1053.1 76.6269 1052.04 76.4789 1051.3 76.0486 C 1051.07 75.9129 1050.79 75.7699 1050.69 75.5183 C 1052.1 74.324 1058.1 75.2681 1059.77 75.5661 C 1057.83 75.9834 1055.88 76.3868 1053.93 76.7762 z"/>
<path transform="translate(0,0)" fill="rgb(189,180,186)" d="M 1005.07 72.9984 C 1005.85 73.1253 1007.62 73.1165 1007.87 74.1635 C 1007.37 74.7432 1005.95 74.4054 1005.49 74.3781 L 1005.07 72.9984 z"/>
<path transform="translate(0,0)" fill="rgb(254,189,179)" d="M 740.291 566.171 C 742.951 562.552 742.724 547.094 744.623 540.978 C 755.101 507.235 783.88 487.829 816.668 509.196 C 814.988 525.38 813.156 550.977 810.537 566.102 C 810.821 570.133 810.556 572.425 808.626 575.877 L 809.454 581.763 C 811.199 585.657 811.453 587.975 809.754 592.025 C 809.933 594.343 810.023 596.222 810.026 598.55 C 808.969 601.378 808.941 601.474 807.298 603.974 C 807.623 604.835 807.948 605.696 808.274 606.557 L 809.997 608.245 L 810.908 631.197 C 783.543 631.213 764.692 622.338 750.475 598.16 C 743.41 586.146 743.505 578.979 740.291 566.171 z"/>
<path transform="translate(0,0)" fill="rgb(1,0,3)" d="M 808.626 575.877 C 805.783 569.804 802.371 563.463 798.207 558.843 C 790.493 550.283 780.505 542.353 768.501 542.728 C 767.846 542.792 763.672 541.779 763.572 540.787 C 762.662 531.715 775.08 536.111 777.01 536.851 C 791.659 542.463 803.68 552.134 810.537 566.102 C 810.821 570.133 810.556 572.425 808.626 575.877 z"/>
<path transform="translate(0,0)" fill="rgb(1,0,3)" d="M 808.274 606.557 C 806.394 607.866 804.322 609.898 801.965 608.007 C 793.062 600.864 804.797 587.624 809.454 581.763 C 811.199 585.657 811.453 587.975 809.754 592.025 C 809.933 594.343 810.023 596.222 810.026 598.55 C 808.969 601.378 808.941 601.474 807.298 603.974 C 807.623 604.835 807.948 605.696 808.274 606.557 z"/>
<path transform="translate(0,0)" fill="rgb(255,255,255)" d="M 809.754 592.025 C 809.933 594.343 810.023 596.222 810.026 598.55 C 808.969 601.378 808.941 601.474 807.298 603.974 C 804.752 597.863 805.806 598.541 809.233 592.896 L 809.754 592.025 z"/>
<path transform="translate(0,0)" fill="url(#Gradient2)" d="M 818.863 503.531 C 820.149 498.788 820.675 495.724 823.244 491.497 C 826.38 489.394 824.652 489.821 828.688 490.573 C 825.092 511.251 824.578 523.291 823.722 544.308 C 821.945 549.52 820.499 564.683 819.804 570.522 C 820.536 574.167 820.709 575.461 820.888 579.115 C 821.703 588.533 825.313 599.216 826.864 608.727 C 827.952 612.432 828.884 616.19 829.969 619.915 C 827.778 622.799 827.518 623.424 824.503 625.274 C 817.844 627.571 820.162 628.199 819.832 635.395 C 820.665 664.328 828.546 699.681 835.791 727.612 C 838.793 739.189 844.044 750.417 846.555 762.546 C 826.773 733.692 813.377 666.447 810.908 631.197 L 809.997 608.245 L 808.274 606.557 C 807.948 605.696 807.623 604.835 807.298 603.974 C 808.941 601.474 808.969 601.378 810.026 598.55 C 810.023 596.222 809.933 594.343 809.754 592.025 C 811.453 587.975 811.199 585.657 809.454 581.763 L 808.626 575.877 C 810.556 572.425 810.821 570.133 810.537 566.102 C 813.156 550.977 814.988 525.38 816.668 509.196 C 817.699 507.234 818.143 505.621 818.863 503.531 z"/>
<path transform="translate(0,0)" fill="rgb(254,189,179)" d="M 818.866 579.672 L 820.888 579.115 C 821.703 588.533 825.313 599.216 826.864 608.727 C 827.952 612.432 828.884 616.19 829.969 619.915 C 827.778 622.799 827.518 623.424 824.503 625.274 C 817.844 627.571 820.162 628.199 819.832 635.395 C 818.356 626.409 818.603 589.852 818.866 579.672 z"/>
<path transform="translate(0,0)" fill="rgb(252,204,195)" d="M 826.864 608.727 C 827.952 612.432 828.884 616.19 829.969 619.915 C 827.778 622.799 827.518 623.424 824.503 625.274 C 823.62 613.999 823.598 617.749 826.864 608.727 z"/>
<path transform="translate(0,0)" fill="rgb(183,140,144)" d="M 807.298 603.974 C 808.941 601.474 808.969 601.378 810.026 598.55 C 809.879 602.063 809.883 604.719 809.997 608.245 L 808.274 606.557 C 807.948 605.696 807.623 604.835 807.298 603.974 z"/>
<path transform="translate(0,0)" fill="rgb(183,140,144)" d="M 818.866 579.672 C 818.923 575.387 818.853 574.612 819.804 570.522 C 820.536 574.167 820.709 575.461 820.888 579.115 L 818.866 579.672 z"/>
<path transform="translate(0,0)" fill="rgb(255,255,255)" d="M 920.307 189.274 C 894.144 141.982 914.529 92.386 966.573 75.4557 C 979.798 71.1533 991.323 71.8318 1005.07 72.9984 L 1005.49 74.3781 C 947.224 88.9805 907.107 130.12 923.859 193.077 L 924.204 194.335 C 922.966 192.911 922.625 192.406 921.527 190.915 L 920.307 189.274 z"/>
<path transform="translate(0,0)" fill="rgb(1,1,55)" d="M 914.804 192.694 C 903.305 175.42 899.032 154.329 902.901 133.942 C 912.343 84.0589 961.705 57.8109 1009.76 67.3223 L 1007.62 68.583 C 1010.78 69.2465 1011.7 69.1375 1014.48 70.664 C 1011.01 70.7251 1008.64 70.6945 1005.18 71.2564 C 1004.86 72.6748 1004.76 72.1019 1005.07 72.9984 C 991.323 71.8318 979.798 71.1533 966.573 75.4557 C 914.529 92.386 894.144 141.982 920.307 189.274 C 918.135 190.849 917.194 191.638 914.804 192.694 z"/>
<path transform="translate(0,0)" fill="url(#Gradient1)" d="M 1139.07 115.915 C 1157.77 144.068 1155.12 187.257 1132.92 212.804 C 1130.66 210.74 1130.85 210.612 1128.09 210.001 C 1146.96 184.432 1150.73 153.056 1136.09 124.453 L 1134.27 120.894 C 1135.86 119.102 1137.38 117.604 1139.07 115.915 z"/>
<path transform="translate(0,0)" fill="rgb(1,0,25)" d="M 920.307 189.274 L 921.527 190.915 C 922.625 192.406 922.966 192.911 924.204 194.335 C 923.708 197.745 924.067 195.739 919.552 198.493 C 917.929 196.51 916.38 194.732 914.804 192.694 C 917.194 191.638 918.135 190.849 920.307 189.274 z"/>
<path transform="translate(0,0)" fill="rgb(132,94,92)" d="M 848.392 663.582 C 850.01 666.378 855.479 677.537 855.583 680.573 C 852.266 674.838 849.31 670.384 846.718 664.218 L 848.392 663.582 z"/>
</svg>